SplineFontDB: 3.2
FontName: AcademyFilled3D-Regular
FullName: Academy Filled 3D Regular
FamilyName: Academy Filled 3D
Weight: Book
Copyright: Copyright (c) 2020 by Vladimir Nikolic. All rights reserved.
Version: 1.000
ItalicAngle: 0
UnderlinePosition: -100
UnderlineWidth: 50
Ascent: 750
Descent: 250
InvalidEm: 0
sfntRevision: 0x00010000
LayerCount: 3
Layer: 0 1 "Back" 1
Layer: 1 1 "Fore" 0
Layer: 2 0 "Back 2" 1
XUID: [1021 153 -1211803803 28754]
StyleMap: 0x0040
FSType: 4
OS2Version: 3
OS2_WeightWidthSlopeOnly: 0
OS2_UseTypoMetrics: 0
CreationTime: 1604017112
ModificationTime: 1632433964
PfmFamily: 81
TTFWeight: 400
TTFWidth: 5
LineGap: 9
VLineGap: 0
Panose: 0 0 0 0 0 0 0 0 0 0
OS2TypoAscent: 750
OS2TypoAOffset: 0
OS2TypoDescent: -250
OS2TypoDOffset: 0
OS2TypoLinegap: 0
OS2WinAscent: 707
OS2WinAOffset: 0
OS2WinDescent: 134
OS2WinDOffset: 0
HheadAscent: 750
HheadAOffset: 0
HheadDescent: -250
HheadDOffset: 0
OS2SubXSize: 700
OS2SubYSize: 650
OS2SubXOff: 0
OS2SubYOff: 140
OS2SupXSize: 700
OS2SupYSize: 650
OS2SupXOff: 0
OS2SupYOff: 477
OS2StrikeYSize: 50
OS2StrikeYPos: 250
OS2CapHeight: 700
OS2XHeight: 500
OS2Vendor: 'PYRS'
OS2CodePages: 00000001.00000000
OS2UnicodeRanges: 00000001.00000000.00000000.00000000
Lookup: 258 0 0 "'kern' Horizontal Kerning lookup 0" { "'kern' Horizontal Kerning lookup 0 per glyph data 0"  "'kern' Horizontal Kerning lookup 0 per glyph data 1"  "'kern' Horizontal Kerning lookup 0 kerning class 2"  } ['kern' ('DFLT' <'dflt' > ) ]
MarkAttachClasses: 1
DEI: 91125
KernClass2: 9+ 7 "'kern' Horizontal Kerning lookup 0 kerning class 2"
 43 E G H I K M O Q S Z b c e g h k m s z D B C
 7 F T f t
 15 J N P U W j n w
 3 L l
 3 R r
 3 V v
 3 Y y
 3 a A
 3 o q
 65 E F G H I K L M N O P Q R S W Z b c d e f g h i k l m n p r D B C
 3 U u
 9 o q s w z
 3 J j
 3 a A
 9 T V Y t y

StartChar: E
Encoding: 69 69 4
Width: 616
GlyphClass: 2
Flags: W
LayerCount: 3
Fore
SplineSet
305 177 m 1,0,-1
 363 177 l 1,1,-1
 363 216 l 1,2,-1
 305 216 l 1,3,-1
 305 177 l 1,0,-1
305 446 m 1,4,-1
 380 446 l 1,5,-1
 368 463 l 1,6,-1
 363 463 l 1,7,-1
 363 485 l 1,8,-1
 305 485 l 1,9,-1
 305 446 l 1,4,-1
573 215 m 1,10,-1
 593 187 l 1,11,-1
 593 -53 l 1,12,-1
 62 -53 l 1,13,-1
 41 -23 l 1,14,-1
 36 -23 l 1,15,-1
 36 177 l 1,16,-1
 77 177 l 1,17,-1
 77 485 l 1,18,-1
 62 485 l 1,19,-1
 41 515 l 1,20,-1
 36 515 l 1,21,-1
 36 715 l 1,22,-1
 573 715 l 1,23,-1
 573 707 l 1,24,-1
 593 679 l 1,25,-1
 593 433 l 1,26,-1
 445 433 l 1,27,-1
 461 410 l 1,28,-1
 461 223 l 1,29,-1
 573 223 l 1,30,-1
 573 215 l 1,10,-1
520 27 m 1,31,-1
 88 27 l 1,32,-1
 88 127 l 1,33,-1
 129 127 l 1,34,-1
 129 565 l 1,35,-1
 88 565 l 1,36,-1
 88 665 l 1,37,-1
 520 665 l 1,38,-1
 520 513 l 1,39,-1
 415 513 l 1,40,-1
 415 565 l 1,41,-1
 233 565 l 1,42,-1
 233 396 l 1,43,-1
 389 396 l 1,44,-1
 389 296 l 1,45,-1
 233 296 l 1,46,-1
 233 127 l 1,47,-1
 415 127 l 1,48,-1
 415 173 l 1,49,-1
 520 173 l 1,50,-1
 520 27 l 1,31,-1
565 215 m 1,51,-1
 371 215 l 1,52,-1
 371 169 l 1,53,-1
 277 169 l 1,54,-1
 277 254 l 1,55,-1
 433 254 l 1,56,-1
 433 438 l 1,57,-1
 277 438 l 1,58,-1
 277 523 l 1,59,-1
 371 523 l 1,60,-1
 371 471 l 1,61,-1
 565 471 l 1,62,-1
 565 707 l 1,63,-1
 44 707 l 1,64,-1
 44 523 l 1,65,-1
 85 523 l 1,66,-1
 85 169 l 1,67,-1
 44 169 l 1,68,-1
 44 -15 l 1,69,-1
 565 -15 l 1,70,-1
 565 215 l 1,51,-1
EndSplineSet
EndChar

StartChar: F
Encoding: 70 70 5
Width: 571
GlyphClass: 2
Flags: W
LayerCount: 3
Fore
SplineSet
306 446 m 1,0,-1
 360 446 l 1,1,-1
 349 462 l 1,2,-1
 344 462 l 1,3,-1
 344 485 l 1,4,-1
 306 485 l 1,5,-1
 306 446 l 1,0,-1
553 707 m 1,6,-1
 573 679 l 1,7,-1
 573 432 l 1,8,-1
 451 432 l 1,9,-1
 467 410 l 1,10,-1
 467 216 l 1,11,-1
 306 216 l 1,12,-1
 306 177 l 1,13,-1
 326 177 l 1,14,-1
 326 169 l 1,15,-1
 346 141 l 1,16,-1
 346 -53 l 1,17,-1
 62 -53 l 1,18,-1
 41 -23 l 1,19,-1
 36 -23 l 1,20,-1
 36 177 l 1,21,-1
 77 177 l 1,22,-1
 77 485 l 1,23,-1
 62 485 l 1,24,-1
 41 515 l 1,25,-1
 36 515 l 1,26,-1
 36 715 l 1,27,-1
 553 715 l 1,28,-1
 553 707 l 1,6,-1
500 512 m 1,29,-1
 397 512 l 1,30,-1
 397 565 l 1,31,-1
 234 565 l 1,32,-1
 234 396 l 1,33,-1
 394 396 l 1,34,-1
 394 296 l 1,35,-1
 234 296 l 1,36,-1
 234 127 l 1,37,-1
 274 127 l 1,38,-1
 274 27 l 1,39,-1
 88 27 l 1,40,-1
 88 127 l 1,41,-1
 129 127 l 1,42,-1
 129 565 l 1,43,-1
 88 565 l 1,44,-1
 88 665 l 1,45,-1
 500 665 l 1,46,-1
 500 512 l 1,29,-1
545 707 m 1,47,-1
 44 707 l 1,48,-1
 44 523 l 1,49,-1
 85 523 l 1,50,-1
 85 169 l 1,51,-1
 44 169 l 1,52,-1
 44 -15 l 1,53,-1
 318 -15 l 1,54,-1
 318 169 l 1,55,-1
 278 169 l 1,56,-1
 278 254 l 1,57,-1
 439 254 l 1,58,-1
 439 438 l 1,59,-1
 278 438 l 1,60,-1
 278 523 l 1,61,-1
 352 523 l 1,62,-1
 352 470 l 1,63,-1
 545 470 l 1,64,-1
 545 707 l 1,47,-1
EndSplineSet
EndChar

StartChar: G
Encoding: 71 71 6
Width: 614
GlyphClass: 2
Flags: W
LayerCount: 3
Fore
SplineSet
571 399 m 1,0,-1
 591 371 l 1,1,-1
 591 35 l 1,2,-1
 499 -53 l 1,3,-1
 154 -53 l 1,4,-1
 62 35 l 1,5,-1
 47 56 l 1,6,-1
 36 67 l 1,7,-1
 36 625 l 1,8,-1
 130 715 l 1,9,-1
 477 715 l 1,10,-1
 571 625 l 1,11,-1
 571 619 l 1,12,-1
 591 591 l 1,13,-1
 591 419 l 1,14,-1
 388 419 l 1,15,-1
 367 449 l 1,16,-1
 362 449 l 1,17,-1
 362 485 l 1,18,-1
 265 485 l 1,19,-1
 265 407 l 1,20,-1
 571 407 l 1,21,-1
 571 399 l 1,0,-1
519 88 m 1,22,-1
 455 27 l 1,23,-1
 152 27 l 1,24,-1
 88 88 l 1,25,-1
 88 604 l 1,26,-1
 152 665 l 1,27,-1
 455 665 l 1,28,-1
 519 604 l 1,29,-1
 519 499 l 1,30,-1
 414 499 l 1,31,-1
 414 565 l 1,32,-1
 193 565 l 1,33,-1
 193 127 l 1,34,-1
 414 127 l 1,35,-1
 414 258 l 1,36,-1
 307 258 l 1,37,-1
 307 357 l 1,38,-1
 519 357 l 1,39,-1
 519 88 l 1,22,-1
563 399 m 1,40,-1
 263 399 l 1,41,-1
 263 216 l 1,42,-1
 370 216 l 1,43,-1
 370 169 l 1,44,-1
 237 169 l 1,45,-1
 237 523 l 1,46,-1
 370 523 l 1,47,-1
 370 457 l 1,48,-1
 563 457 l 1,49,-1
 563 622 l 1,50,-1
 474 707 l 1,51,-1
 133 707 l 1,52,-1
 44 622 l 1,53,-1
 44 70 l 1,54,-1
 133 -15 l 1,55,-1
 474 -15 l 1,56,-1
 563 70 l 1,57,-1
 563 399 l 1,40,-1
EndSplineSet
EndChar

StartChar: H
Encoding: 72 72 7
Width: 680
GlyphClass: 2
Flags: W
LayerCount: 3
Fore
SplineSet
352 531 m 1,0,-1
 347 531 l 1,1,-1
 347 715 l 1,2,-1
 637 715 l 1,3,-1
 637 707 l 1,4,-1
 657 679 l 1,5,-1
 657 501 l 1,6,-1
 616 501 l 1,7,-1
 616 157 l 1,8,-1
 637 157 l 1,9,-1
 637 149 l 1,10,-1
 657 121 l 1,11,-1
 657 -53 l 1,12,-1
 373 -53 l 1,13,-1
 352 -23 l 1,14,-1
 347 -23 l 1,15,-1
 347 157 l 1,16,-1
 387 157 l 1,17,-1
 387 216 l 1,18,-1
 305 216 l 1,19,-1
 305 157 l 1,20,-1
 325 157 l 1,21,-1
 325 149 l 1,22,-1
 345 121 l 1,23,-1
 345 -53 l 1,24,-1
 62 -53 l 1,25,-1
 41 -23 l 1,26,-1
 36 -23 l 1,27,-1
 36 157 l 1,28,-1
 76 157 l 1,29,-1
 76 501 l 1,30,-1
 62 501 l 1,31,-1
 41 531 l 1,32,-1
 36 531 l 1,33,-1
 36 715 l 1,34,-1
 325 715 l 1,35,-1
 325 707 l 1,36,-1
 345 679 l 1,37,-1
 345 501 l 1,38,-1
 305 501 l 1,39,-1
 305 446 l 1,40,-1
 387 446 l 1,41,-1
 387 501 l 1,42,-1
 373 501 l 1,43,-1
 352 531 l 1,0,-1
584 107 m 1,44,-1
 584 27 l 1,45,-1
 399 27 l 1,46,-1
 399 107 l 1,47,-1
 440 107 l 1,48,-1
 440 296 l 1,49,-1
 233 296 l 1,50,-1
 233 107 l 1,51,-1
 273 107 l 1,52,-1
 273 27 l 1,53,-1
 88 27 l 1,54,-1
 88 107 l 1,55,-1
 128 107 l 1,56,-1
 128 581 l 1,57,-1
 88 581 l 1,58,-1
 88 665 l 1,59,-1
 273 665 l 1,60,-1
 273 581 l 1,61,-1
 233 581 l 1,62,-1
 233 396 l 1,63,-1
 440 396 l 1,64,-1
 440 581 l 1,65,-1
 399 581 l 1,66,-1
 399 665 l 1,67,-1
 584 665 l 1,68,-1
 584 581 l 1,69,-1
 544 581 l 1,70,-1
 544 107 l 1,71,-1
 584 107 l 1,44,-1
588 149 m 1,72,-1
 588 539 l 1,73,-1
 629 539 l 1,74,-1
 629 707 l 1,75,-1
 355 707 l 1,76,-1
 355 539 l 1,77,-1
 395 539 l 1,78,-1
 395 438 l 1,79,-1
 277 438 l 1,80,-1
 277 539 l 1,81,-1
 317 539 l 1,82,-1
 317 707 l 1,83,-1
 44 707 l 1,84,-1
 44 539 l 1,85,-1
 84 539 l 1,86,-1
 84 149 l 1,87,-1
 44 149 l 1,88,-1
 44 -15 l 1,89,-1
 317 -15 l 1,90,-1
 317 149 l 1,91,-1
 277 149 l 1,92,-1
 277 254 l 1,93,-1
 395 254 l 1,94,-1
 395 149 l 1,95,-1
 355 149 l 1,96,-1
 355 -15 l 1,97,-1
 629 -15 l 1,98,-1
 629 149 l 1,99,-1
 588 149 l 1,72,-1
EndSplineSet
EndChar

StartChar: I
Encoding: 73 73 8
Width: 368
GlyphClass: 2
Flags: W
LayerCount: 3
Fore
SplineSet
41 535 m 1,0,-1
 36 535 l 1,1,-1
 36 715 l 1,2,-1
 325 715 l 1,3,-1
 325 707 l 1,4,-1
 345 679 l 1,5,-1
 345 505 l 1,6,-1
 305 505 l 1,7,-1
 305 157 l 1,8,-1
 325 157 l 1,9,-1
 325 149 l 1,10,-1
 345 121 l 1,11,-1
 345 -53 l 1,12,-1
 62 -53 l 1,13,-1
 41 -23 l 1,14,-1
 36 -23 l 1,15,-1
 36 157 l 1,16,-1
 76 157 l 1,17,-1
 76 505 l 1,18,-1
 62 505 l 1,19,-1
 41 535 l 1,0,-1
273 107 m 1,20,-1
 273 27 l 1,21,-1
 88 27 l 1,22,-1
 88 107 l 1,23,-1
 128 107 l 1,24,-1
 128 585 l 1,25,-1
 88 585 l 1,26,-1
 88 665 l 1,27,-1
 273 665 l 1,28,-1
 273 585 l 1,29,-1
 233 585 l 1,30,-1
 233 107 l 1,31,-1
 273 107 l 1,20,-1
317 543 m 1,32,-1
 317 707 l 1,33,-1
 44 707 l 1,34,-1
 44 543 l 1,35,-1
 84 543 l 1,36,-1
 84 149 l 1,37,-1
 44 149 l 1,38,-1
 44 -15 l 1,39,-1
 317 -15 l 1,40,-1
 317 149 l 1,41,-1
 277 149 l 1,42,-1
 277 543 l 1,43,-1
 317 543 l 1,32,-1
EndSplineSet
EndChar

StartChar: J
Encoding: 74 74 9
Width: 536
GlyphClass: 2
Flags: W
LayerCount: 3
Fore
SplineSet
502 715 m 1,0,-1
 502 707 l 1,1,-1
 522 679 l 1,2,-1
 522 506 l 1,3,-1
 481 506 l 1,4,-1
 481 35 l 1,5,-1
 389 -53 l 1,6,-1
 120 -53 l 1,7,-1
 28 35 l 1,8,-1
 13 56 l 1,9,-1
 2 67 l 1,10,-1
 2 263 l 1,11,-1
 210 263 l 1,12,-1
 210 255 l 1,13,-1
 230 227 l 1,14,-1
 230 177 l 1,15,-1
 253 177 l 1,16,-1
 253 506 l 1,17,-1
 238 506 l 1,18,-1
 217 536 l 1,19,-1
 212 536 l 1,20,-1
 212 715 l 1,21,-1
 502 715 l 1,0,-1
450 665 m 1,22,-1
 450 586 l 1,23,-1
 409 586 l 1,24,-1
 409 88 l 1,25,-1
 345 27 l 1,26,-1
 118 27 l 1,27,-1
 54 88 l 1,28,-1
 54 213 l 1,29,-1
 158 213 l 1,30,-1
 158 127 l 1,31,-1
 305 127 l 1,32,-1
 305 586 l 1,33,-1
 264 586 l 1,34,-1
 264 665 l 1,35,-1
 450 665 l 1,22,-1
220 707 m 1,36,-1
 220 544 l 1,37,-1
 261 544 l 1,38,-1
 261 169 l 1,39,-1
 202 169 l 1,40,-1
 202 255 l 1,41,-1
 10 255 l 1,42,-1
 10 70 l 1,43,-1
 99 -15 l 1,44,-1
 364 -15 l 1,45,-1
 453 70 l 1,46,-1
 453 544 l 1,47,-1
 494 544 l 1,48,-1
 494 707 l 1,49,-1
 220 707 l 1,36,-1
EndSplineSet
EndChar

StartChar: K
Encoding: 75 75 10
Width: 659
GlyphClass: 2
Flags: W
LayerCount: 3
Fore
SplineSet
305 166 m 1,0,-1
 345 166 l 1,1,-1
 305 213 l 1,2,-1
 305 166 l 1,0,-1
41 535 m 1,3,-1
 36 535 l 1,4,-1
 36 715 l 1,5,-1
 616 715 l 1,6,-1
 616 707 l 1,7,-1
 636 679 l 1,8,-1
 636 505 l 1,9,-1
 586 505 l 1,10,-1
 440 326 l 1,11,-1
 490 266 l 2,12,13
 508 243 508 243 526 221.5 c 128,-1,14
 544 200 544 200 564 177 c 1,15,-1
 616 177 l 1,16,-1
 616 169 l 1,17,-1
 636 141 l 1,18,-1
 636 -53 l 1,19,-1
 352 -53 l 1,20,-1
 339 -34 l 1,21,-1
 339 -53 l 1,22,-1
 62 -53 l 1,23,-1
 41 -23 l 1,24,-1
 36 -23 l 1,25,-1
 36 177 l 1,26,-1
 77 177 l 1,27,-1
 77 505 l 1,28,-1
 62 505 l 1,29,-1
 41 535 l 1,3,-1
541 585 m 1,30,-1
 349 355 l 1,31,-1
 541 127 l 1,32,-1
 563 127 l 1,33,-1
 563 27 l 1,34,-1
 378 27 l 1,35,-1
 378 127 l 1,36,-1
 443 127 l 1,37,38
 424 148 424 148 405 170.5 c 128,-1,39
 386 193 386 193 368 216 c 0,40,41
 349 239 349 239 331 261.5 c 128,-1,42
 313 284 313 284 295 305 c 1,43,-1
 233 305 l 1,44,-1
 233 127 l 1,45,-1
 274 127 l 1,46,-1
 274 27 l 1,47,-1
 88 27 l 1,48,-1
 88 127 l 1,49,-1
 129 127 l 1,50,-1
 129 585 l 1,51,-1
 88 585 l 1,52,-1
 88 665 l 1,53,-1
 274 665 l 1,54,-1
 274 585 l 1,55,-1
 233 585 l 1,56,-1
 233 405 l 1,57,-1
 295 405 l 1,58,59
 424 564 424 564 443 585 c 1,60,-1
 378 585 l 1,61,-1
 378 665 l 1,62,-1
 563 665 l 1,63,-1
 563 585 l 1,64,-1
 541 585 l 1,30,-1
608 543 m 1,65,-1
 608 707 l 1,66,-1
 334 707 l 1,67,-1
 334 543 l 1,68,-1
 348 543 l 1,69,70
 339 532 339 532 279 452 c 1,71,72
 277 535 277 535 277 543 c 1,73,-1
 309 543 l 1,74,-1
 309 707 l 1,75,-1
 44 707 l 1,76,-1
 44 543 l 1,77,-1
 85 543 l 1,78,-1
 85 169 l 1,79,-1
 44 169 l 1,80,-1
 44 -15 l 1,81,-1
 311 -15 l 1,82,-1
 311 158 l 1,83,-1
 277 158 l 1,84,-1
 277 259 l 1,85,-1
 365 158 l 1,86,-1
 334 158 l 1,87,-1
 334 -15 l 1,88,-1
 608 -15 l 1,89,-1
 608 169 l 1,90,-1
 561 169 l 1,91,-1
 407 355 l 1,92,-1
 561 543 l 1,93,-1
 608 543 l 1,65,-1
EndSplineSet
EndChar

StartChar: L
Encoding: 76 76 11
Width: 567
GlyphClass: 2
Flags: W
LayerCount: 3
Fore
SplineSet
541 253 m 1,0,-1
 541 245 l 1,1,-1
 561 217 l 1,2,-1
 561 -53 l 1,3,-1
 62 -53 l 1,4,-1
 41 -23 l 1,5,-1
 36 -23 l 1,6,-1
 36 176 l 1,7,-1
 76 176 l 1,8,-1
 76 497 l 1,9,-1
 62 497 l 1,10,-1
 41 527 l 1,11,-1
 36 527 l 1,12,-1
 36 714 l 1,13,-1
 325 714 l 1,14,-1
 325 706 l 1,15,-1
 345 678 l 1,16,-1
 345 497 l 1,17,-1
 305 497 l 1,18,-1
 305 176 l 1,19,-1
 332 176 l 1,20,-1
 332 253 l 1,21,-1
 541 253 l 1,0,-1
489 203 m 1,22,-1
 489 27 l 1,23,-1
 88 27 l 1,24,-1
 88 126 l 1,25,-1
 128 126 l 1,26,-1
 128 577 l 1,27,-1
 88 577 l 1,28,-1
 88 664 l 1,29,-1
 273 664 l 1,30,-1
 273 577 l 1,31,-1
 233 577 l 1,32,-1
 233 126 l 1,33,-1
 384 126 l 1,34,-1
 384 203 l 1,35,-1
 489 203 l 1,22,-1
340 245 m 1,36,-1
 340 168 l 1,37,-1
 277 168 l 1,38,-1
 277 535 l 1,39,-1
 317 535 l 1,40,-1
 317 706 l 1,41,-1
 44 706 l 1,42,-1
 44 535 l 1,43,-1
 84 535 l 1,44,-1
 84 168 l 1,45,-1
 44 168 l 1,46,-1
 44 -15 l 1,47,-1
 533 -15 l 1,48,-1
 533 245 l 1,49,-1
 340 245 l 1,36,-1
EndSplineSet
EndChar

StartChar: M
Encoding: 77 77 12
Width: 756
GlyphClass: 2
Flags: W
LayerCount: 3
Fore
SplineSet
464 219 m 1,0,1
 456 207 456 207 450 194.5 c 128,-1,2
 444 182 444 182 437 170 c 1,3,-1
 464 170 l 1,4,-1
 464 219 l 1,0,1
41 515 m 1,5,-1
 36 515 l 1,6,-1
 36 715 l 1,7,-1
 263 715 l 1,8,-1
 374 525 l 1,9,-1
 487 715 l 1,10,-1
 713 715 l 1,11,-1
 713 707 l 1,12,-1
 733 679 l 1,13,-1
 733 485 l 1,14,-1
 693 485 l 1,15,-1
 693 170 l 1,16,-1
 713 170 l 1,17,-1
 713 162 l 1,18,-1
 733 134 l 1,19,-1
 733 -53 l 1,20,-1
 450 -53 l 1,21,-1
 429 -23 l 1,22,-1
 424 -23 l 1,23,-1
 424 144 l 1,24,25
 422 140 422 140 422 140 c 1,26,-1
 396 92 l 1,27,-1
 375 122 l 1,28,29
 373 120 373 120 373 118 c 1,30,-1
 305 248 l 1,31,-1
 305 170 l 1,32,-1
 325 170 l 1,33,-1
 325 162 l 1,34,-1
 345 134 l 1,35,-1
 345 -53 l 1,36,-1
 62 -53 l 1,37,-1
 41 -23 l 1,38,-1
 36 -23 l 1,39,-1
 36 170 l 1,40,-1
 76 170 l 1,41,-1
 76 485 l 1,42,-1
 62 485 l 1,43,-1
 41 515 l 1,5,-1
661 120 m 1,44,-1
 661 27 l 1,45,-1
 476 27 l 1,46,-1
 476 120 l 1,47,-1
 516 120 l 1,48,-1
 513 509 l 1,49,50
 479 439 479 439 443.5 368 c 128,-1,51
 408 297 408 297 373 227 c 1,52,-1
 227 505 l 1,53,-1
 233 120 l 1,54,-1
 273 120 l 1,55,-1
 273 27 l 1,56,-1
 88 27 l 1,57,-1
 88 120 l 1,58,-1
 128 120 l 1,59,-1
 128 565 l 1,60,-1
 88 565 l 1,61,-1
 88 665 l 1,62,-1
 233 665 l 1,63,-1
 373 423 l 1,64,-1
 518 665 l 1,65,-1
 661 665 l 1,66,-1
 661 565 l 1,67,-1
 621 565 l 1,68,-1
 621 120 l 1,69,-1
 661 120 l 1,44,-1
705 523 m 1,70,-1
 705 707 l 1,71,-1
 492 707 l 1,72,-1
 374 509 l 1,73,-1
 259 707 l 1,74,-1
 44 707 l 1,75,-1
 44 523 l 1,76,-1
 84 523 l 1,77,-1
 84 162 l 1,78,-1
 44 162 l 1,79,-1
 44 -15 l 1,80,-1
 317 -15 l 1,81,-1
 317 162 l 1,82,-1
 277 162 l 1,83,-1
 277 316 l 1,84,-1
 373 134 l 1,85,-1
 395 175 l 2,86,87
 414 210 414 210 433 245.5 c 128,-1,88
 452 281 452 281 472 316 c 1,89,-1
 472 162 l 1,90,-1
 432 162 l 1,91,-1
 432 -15 l 1,92,-1
 705 -15 l 1,93,-1
 705 162 l 1,94,-1
 665 162 l 1,95,-1
 665 523 l 1,96,-1
 705 523 l 1,70,-1
EndSplineSet
EndChar

StartChar: N
Encoding: 78 78 13
Width: 664
GlyphClass: 2
Flags: W
LayerCount: 3
Fore
SplineSet
381 480 m 1,0,-1
 381 501 l 1,1,-1
 372 501 l 1,2,-1
 381 480 l 1,0,-1
630 715 m 1,3,-1
 630 707 l 1,4,-1
 650 679 l 1,5,-1
 650 501 l 1,6,-1
 609 501 l 1,7,-1
 609 -53 l 1,8,-1
 410 -53 l 1,9,-1
 389 -23 l 1,10,-1
 385 -23 l 1,11,-1
 346 67 l 1,12,-1
 346 -53 l 1,13,-1
 62 -53 l 1,14,-1
 41 -23 l 1,15,-1
 36 -23 l 1,16,-1
 36 177 l 1,17,-1
 77 177 l 1,18,-1
 77 503 l 1,19,-1
 62 503 l 1,20,-1
 41 533 l 1,21,-1
 36 533 l 1,22,-1
 36 715 l 1,23,-1
 274 715 l 1,24,-1
 280 699 l 1,25,-1
 295 679 l 1,26,-1
 340 575 l 1,27,-1
 340 715 l 1,28,-1
 630 715 l 1,3,-1
578 665 m 1,29,-1
 578 581 l 1,30,-1
 537 581 l 1,31,-1
 537 27 l 1,32,-1
 421 27 l 1,33,-1
 234 465 l 1,34,-1
 233 127 l 1,35,-1
 274 127 l 1,36,-1
 274 27 l 1,37,-1
 88 27 l 1,38,-1
 88 127 l 1,39,-1
 129 127 l 1,40,-1
 129 583 l 1,41,-1
 88 583 l 1,42,-1
 88 665 l 1,43,-1
 239 665 l 1,44,-1
 435 233 l 1,45,-1
 433 581 l 1,46,-1
 392 581 l 1,47,-1
 392 665 l 1,48,-1
 578 665 l 1,29,-1
348 707 m 1,49,-1
 348 539 l 1,50,-1
 389 539 l 1,51,-1
 389 428 l 1,52,-1
 268 707 l 1,53,-1
 44 707 l 1,54,-1
 44 541 l 1,55,-1
 85 541 l 1,56,-1
 85 169 l 1,57,-1
 44 169 l 1,58,-1
 44 -15 l 1,59,-1
 318 -15 l 1,60,-1
 318 156 l 1,61,-1
 391 -15 l 1,62,-1
 581 -15 l 1,63,-1
 581 539 l 1,64,-1
 622 539 l 1,65,-1
 622 707 l 1,66,-1
 348 707 l 1,49,-1
277 252 m 1,67,68
 285 232 285 232 294.5 210.5 c 128,-1,69
 304 189 304 189 313 169 c 1,70,-1
 277 169 l 1,71,-1
 277 252 l 1,67,68
EndSplineSet
EndChar

StartChar: O
Encoding: 79 79 14
Width: 600
GlyphClass: 2
Flags: W
LayerCount: 3
Fore
SplineSet
264 176 m 1,0,-1
 348 176 l 1,1,-1
 348 485 l 1,2,-1
 264 485 l 1,3,-1
 264 176 l 1,0,-1
557 599 m 1,4,-1
 577 571 l 1,5,-1
 577 61 l 1,6,-1
 463 -53 l 1,7,-1
 172 -53 l 1,8,-1
 62 57 l 1,9,-1
 48 77 l 1,10,-1
 36 89 l 1,11,-1
 36 601 l 1,12,-1
 147 714 l 1,13,-1
 439 714 l 1,14,-1
 557 605 l 1,15,-1
 557 599 l 1,4,-1
505 115 m 1,16,-1
 419 27 l 1,17,-1
 171 27 l 1,18,-1
 88 111 l 1,19,-1
 88 580 l 1,20,21
 106 600 106 600 127.5 622 c 128,-1,22
 149 644 149 644 169 664 c 1,23,-1
 418 664 l 1,24,-1
 505 584 l 1,25,-1
 505 115 l 1,16,-1
400 126 m 1,26,-1
 400 565 l 1,27,-1
 192 565 l 1,28,-1
 192 126 l 1,29,-1
 400 126 l 1,26,-1
549 602 m 1,30,-1
 436 706 l 1,31,-1
 150 706 l 1,32,-1
 44 598 l 1,33,-1
 44 93 l 1,34,-1
 152 -15 l 1,35,-1
 437 -15 l 1,36,-1
 549 97 l 1,37,-1
 549 602 l 1,30,-1
236 168 m 1,38,-1
 236 523 l 1,39,-1
 356 523 l 1,40,-1
 356 168 l 1,41,-1
 236 168 l 1,38,-1
EndSplineSet
EndChar

StartChar: P
Encoding: 80 80 15
Width: 602
GlyphClass: 2
Flags: W
LayerCount: 3
Fore
SplineSet
305 401 m 1,0,-1
 359 401 l 1,1,-1
 359 485 l 1,2,-1
 305 485 l 1,3,-1
 305 401 l 1,0,-1
568 625 m 1,4,-1
 568 619 l 1,5,-1
 588 591 l 1,6,-1
 588 259 l 1,7,-1
 496 171 l 1,8,-1
 305 171 l 1,9,-1
 305 160 l 1,10,-1
 325 160 l 1,11,-1
 325 152 l 1,12,-1
 345 124 l 1,13,-1
 345 -53 l 1,14,-1
 62 -53 l 1,15,-1
 41 -23 l 1,16,-1
 36 -23 l 1,17,-1
 36 160 l 1,18,-1
 76 160 l 1,19,-1
 76 499 l 1,20,-1
 62 499 l 1,21,-1
 41 529 l 1,22,-1
 36 529 l 1,23,-1
 36 714 l 1,24,-1
 473 714 l 1,25,-1
 568 625 l 1,4,-1
516 604 m 1,26,-1
 516 312 l 1,27,-1
 452 251 l 1,28,-1
 233 251 l 1,29,-1
 233 110 l 1,30,-1
 273 110 l 1,31,-1
 273 27 l 1,32,-1
 88 27 l 1,33,-1
 88 110 l 1,34,-1
 128 110 l 1,35,-1
 128 579 l 1,36,-1
 88 579 l 1,37,-1
 88 664 l 1,38,-1
 452 664 l 1,39,-1
 516 604 l 1,26,-1
411 351 m 1,40,-1
 411 565 l 1,41,-1
 233 565 l 1,42,-1
 233 351 l 1,43,-1
 411 351 l 1,40,-1
470 706 m 1,44,-1
 44 706 l 1,45,-1
 44 537 l 1,46,-1
 84 537 l 1,47,-1
 84 152 l 1,48,-1
 44 152 l 1,49,-1
 44 -15 l 1,50,-1
 317 -15 l 1,51,-1
 317 152 l 1,52,-1
 277 152 l 1,53,-1
 277 209 l 1,54,-1
 471 209 l 1,55,-1
 560 294 l 1,56,-1
 560 622 l 1,57,-1
 470 706 l 1,44,-1
277 393 m 1,58,-1
 277 523 l 1,59,-1
 367 523 l 1,60,-1
 367 393 l 1,61,-1
 277 393 l 1,58,-1
EndSplineSet
EndChar

StartChar: Q
Encoding: 81 81 16
Width: 600
GlyphClass: 2
Flags: W
LayerCount: 3
Fore
SplineSet
477 -42 m 1,0,-1
 409 29 l 1,1,-1
 177 29 l 1,2,-1
 98 113 l 1,3,-1
 98 582 l 1,4,-1
 175 666 l 1,5,-1
 412 666 l 1,6,-1
 495 586 l 1,7,-1
 495 93 l 1,8,-1
 553 25 l 1,9,-1
 477 -42 l 1,0,-1
537 604 m 1,10,-1
 430 708 l 1,11,-1
 157 708 l 1,12,-1
 56 600 l 1,13,-1
 56 95 l 1,14,-1
 159 -13 l 1,15,-1
 394 -13 l 1,16,-1
 473 -100 l 1,17,-1
 608 24 l 1,18,-1
 537 111 l 1,19,-1
 537 604 l 1,10,-1
239 525 m 1,20,-1
 353 525 l 1,21,-1
 353 170 l 1,22,-1
 239 170 l 1,23,-1
 239 525 l 1,20,-1
197 128 m 1,24,-1
 395 128 l 1,25,-1
 395 567 l 1,26,-1
 197 567 l 1,27,-1
 197 128 l 1,24,-1
545 601 m 1,28,-1
 565 573 l 1,29,-1
 565 89 l 1,30,-1
 619 23 l 1,31,-1
 616 21 l 1,32,-1
 638 -10 l 1,33,-1
 496 -140 l 1,34,-1
 415 -51 l 1,35,-1
 180 -51 l 1,36,-1
 74 60 l 1,37,-1
 61 77 l 1,38,-1
 48 92 l 1,39,-1
 48 603 l 1,40,-1
 154 716 l 1,41,-1
 433 716 l 1,42,-1
 545 607 l 1,43,-1
 545 601 l 1,28,-1
267 178 m 1,44,-1
 345 178 l 1,45,-1
 345 487 l 1,46,-1
 267 487 l 1,47,-1
 267 178 l 1,44,-1
EndSplineSet
EndChar

StartChar: R
Encoding: 82 82 17
Width: 621
GlyphClass: 2
Flags: W
LayerCount: 3
Fore
SplineSet
305 151 m 1,0,-1
 363 151 l 1,1,-1
 363 170 l 1,2,-1
 305 170 l 1,3,-1
 305 151 l 1,0,-1
305 399 m 1,4,-1
 363 399 l 1,5,-1
 363 485 l 1,6,-1
 305 485 l 1,7,-1
 305 399 l 1,4,-1
573 244 m 1,8,-1
 593 216 l 1,9,-1
 593 151 l 1,10,-1
 602 151 l 1,11,-1
 602 143 l 1,12,-1
 622 115 l 1,13,-1
 622 -53 l 1,14,-1
 357 -53 l 1,15,-1
 346 -37 l 1,16,-1
 346 -53 l 1,17,-1
 62 -53 l 1,18,-1
 41 -23 l 1,19,-1
 36 -23 l 1,20,-1
 36 151 l 1,21,-1
 77 151 l 1,22,-1
 77 485 l 1,23,-1
 62 485 l 1,24,-1
 41 515 l 1,25,-1
 36 515 l 1,26,-1
 36 714 l 1,27,-1
 478 714 l 1,28,-1
 573 624 l 1,29,-1
 573 618 l 1,30,-1
 593 590 l 1,31,-1
 593 324 l 1,32,-1
 547 276 l 1,33,-1
 573 250 l 1,34,-1
 573 244 l 1,8,-1
550 101 m 1,35,-1
 550 27 l 1,36,-1
 383 27 l 1,37,-1
 383 101 l 1,38,-1
 415 101 l 1,39,-1
 415 250 l 1,40,-1
 233 250 l 1,41,-1
 233 101 l 1,42,-1
 274 101 l 1,43,-1
 274 27 l 1,44,-1
 88 27 l 1,45,-1
 88 101 l 1,46,-1
 129 101 l 1,47,-1
 129 565 l 1,48,-1
 88 565 l 1,49,-1
 88 664 l 1,50,-1
 456 664 l 1,51,-1
 520 603 l 1,52,-1
 520 377 l 1,53,-1
 442 301 l 1,54,-1
 520 228 l 1,55,-1
 520 101 l 1,56,-1
 550 101 l 1,35,-1
415 349 m 1,57,-1
 415 565 l 1,58,-1
 233 565 l 1,59,-1
 233 349 l 1,60,-1
 415 349 l 1,57,-1
565 246 m 1,61,-1
 511 302 l 1,62,-1
 565 359 l 1,63,-1
 565 621 l 1,64,-1
 475 706 l 1,65,-1
 44 706 l 1,66,-1
 44 523 l 1,67,-1
 85 523 l 1,68,-1
 85 143 l 1,69,-1
 44 143 l 1,70,-1
 44 -15 l 1,71,-1
 318 -15 l 1,72,-1
 318 143 l 1,73,-1
 277 143 l 1,74,-1
 277 208 l 1,75,-1
 371 208 l 1,76,-1
 371 143 l 1,77,-1
 339 143 l 1,78,-1
 339 -15 l 1,79,-1
 594 -15 l 1,80,-1
 594 143 l 1,81,-1
 565 143 l 1,82,-1
 565 246 l 1,61,-1
277 391 m 1,83,-1
 277 523 l 1,84,-1
 371 523 l 1,85,-1
 371 391 l 1,86,-1
 277 391 l 1,83,-1
EndSplineSet
EndChar

StartChar: S
Encoding: 83 83 18
Width: 601
GlyphClass: 2
Flags: W
LayerCount: 3
Fore
SplineSet
140 235 m 1,0,-1
 141 235 l 1,1,-1
 133 246 l 1,2,-1
 140 235 l 1,0,-1
265 199 m 1,3,-1
 265 177 l 1,4,-1
 349 177 l 1,5,-1
 349 216 l 1,6,-1
 253 216 l 1,7,-1
 265 199 l 1,3,-1
265 446 m 1,8,-1
 362 446 l 1,9,-1
 354 458 l 1,10,-1
 349 458 l 1,11,-1
 349 485 l 1,12,-1
 265 485 l 1,13,-1
 265 446 l 1,8,-1
558 333 m 1,14,-1
 578 305 l 1,15,-1
 578 58 l 1,16,-1
 460 -53 l 1,17,-1
 171 -53 l 1,18,-1
 62 51 l 1,19,-1
 47 72 l 1,20,-1
 36 83 l 1,21,-1
 36 235 l 1,22,-1
 134 235 l 1,23,-1
 62 304 l 1,24,-1
 47 325 l 1,25,-1
 36 336 l 1,26,-1
 36 606 l 1,27,-1
 154 714 l 1,28,-1
 445 715 l 1,29,-1
 558 611 l 1,30,-1
 558 605 l 1,31,-1
 578 577 l 1,32,-1
 578 428 l 1,33,-1
 465 428 l 1,34,-1
 558 339 l 1,35,-1
 558 333 l 1,14,-1
506 111 m 1,36,-1
 416 27 l 1,37,-1
 169 27 l 1,38,-1
 88 104 l 1,39,-1
 88 185 l 1,40,-1
 193 185 l 1,41,-1
 193 127 l 1,42,-1
 401 127 l 1,43,-1
 401 296 l 1,44,-1
 152 296 l 1,45,-1
 88 357 l 1,46,-1
 88 585 l 1,47,-1
 176 664 l 1,48,49
 199 664 199 664 231.5 664 c 128,-1,50
 264 664 264 664 299 664.5 c 128,-1,51
 334 665 334 665 367 665 c 128,-1,52
 400 665 400 665 423 665 c 1,53,-1
 506 590 l 1,54,-1
 506 508 l 1,55,-1
 401 508 l 1,56,-1
 401 565 l 1,57,-1
 193 565 l 1,58,-1
 193 396 l 1,59,-1
 424 396 l 1,60,-1
 506 318 l 1,61,-1
 506 111 l 1,36,-1
550 336 m 1,62,-1
 443 438 l 1,63,-1
 237 438 l 1,64,-1
 237 523 l 1,65,-1
 357 523 l 1,66,-1
 357 466 l 1,67,-1
 550 466 l 1,68,-1
 550 608 l 1,69,-1
 442 707 l 1,70,-1
 157 706 l 1,71,-1
 44 603 l 1,72,-1
 44 339 l 1,73,-1
 133 254 l 1,74,-1
 357 254 l 1,75,-1
 357 169 l 1,76,-1
 237 169 l 1,77,-1
 237 227 l 1,78,-1
 44 227 l 1,79,-1
 44 86 l 1,80,-1
 150 -15 l 1,81,-1
 435 -15 l 1,82,-1
 550 93 l 1,83,-1
 550 336 l 1,62,-1
EndSplineSet
EndChar

StartChar: T
Encoding: 84 84 19
Width: 605
GlyphClass: 2
Flags: W
LayerCount: 3
Fore
SplineSet
587 715 m 1,0,-1
 587 707 l 1,1,-1
 607 679 l 1,2,-1
 607 440 l 1,3,-1
 445 440 l 1,4,-1
 423 470 l 1,5,-1
 423 165 l 1,6,-1
 444 165 l 1,7,-1
 444 157 l 1,8,-1
 464 129 l 1,9,-1
 464 -53 l 1,10,-1
 180 -53 l 1,11,-1
 159 -23 l 1,12,-1
 154 -23 l 1,13,-1
 154 165 l 1,14,-1
 195 165 l 1,15,-1
 195 440 l 1,16,-1
 35 440 l 1,17,-1
 14 470 l 1,18,-1
 9 470 l 1,19,-1
 9 715 l 1,20,-1
 587 715 l 1,0,-1
535 665 m 1,21,-1
 535 520 l 1,22,-1
 471 520 l 1,23,-1
 471 565 l 1,24,-1
 351 565 l 1,25,-1
 351 115 l 1,26,-1
 392 115 l 1,27,-1
 392 27 l 1,28,-1
 206 27 l 1,29,-1
 206 115 l 1,30,-1
 247 115 l 1,31,-1
 247 565 l 1,32,-1
 127 565 l 1,33,-1
 127 520 l 1,34,-1
 62 520 l 1,35,-1
 62 665 l 1,36,-1
 535 665 l 1,21,-1
17 707 m 1,37,-1
 17 478 l 1,38,-1
 171 478 l 1,39,-1
 171 532 l 1,40,-1
 203 532 l 1,41,-1
 203 157 l 1,42,-1
 162 157 l 1,43,-1
 162 -15 l 1,44,-1
 436 -15 l 1,45,-1
 436 157 l 1,46,-1
 395 157 l 1,47,-1
 395 532 l 1,48,-1
 427 532 l 1,49,-1
 427 478 l 1,50,-1
 579 478 l 1,51,-1
 579 707 l 1,52,-1
 17 707 l 1,37,-1
EndSplineSet
EndChar

StartChar: U
Encoding: 85 85 20
Width: 649
GlyphClass: 2
Flags: W
LayerCount: 3
Fore
SplineSet
615 715 m 1,0,-1
 615 707 l 1,1,-1
 635 679 l 1,2,-1
 635 504 l 1,3,-1
 595 504 l 1,4,-1
 595 56 l 1,5,-1
 483 -53 l 1,6,-1
 199 -53 l 1,7,-1
 92 56 l 1,8,-1
 78 75 l 1,9,-1
 66 88 l 1,10,-1
 66 504 l 1,11,-1
 52 504 l 1,12,-1
 31 534 l 1,13,-1
 26 534 l 1,14,-1
 26 715 l 1,15,-1
 305 715 l 1,16,-1
 305 707 l 1,17,-1
 325 679 l 1,18,-1
 325 504 l 1,19,-1
 295 504 l 1,20,-1
 295 177 l 1,21,-1
 366 177 l 1,22,-1
 366 504 l 1,23,-1
 361 504 l 1,24,-1
 340 534 l 1,25,-1
 335 534 l 1,26,-1
 335 715 l 1,27,-1
 615 715 l 1,0,-1
563 665 m 1,28,-1
 563 584 l 1,29,-1
 523 584 l 1,30,-1
 523 109 l 1,31,-1
 439 27 l 1,32,-1
 196 27 l 1,33,-1
 118 109 l 1,34,-1
 118 584 l 1,35,-1
 78 584 l 1,36,-1
 78 665 l 1,37,-1
 253 665 l 1,38,-1
 253 584 l 1,39,-1
 223 584 l 1,40,-1
 223 127 l 1,41,-1
 418 127 l 1,42,-1
 418 584 l 1,43,-1
 388 584 l 1,44,-1
 388 665 l 1,45,-1
 563 665 l 1,28,-1
343 707 m 1,46,-1
 343 542 l 1,47,-1
 374 542 l 1,48,-1
 374 169 l 1,49,-1
 267 169 l 1,50,-1
 267 542 l 1,51,-1
 297 542 l 1,52,-1
 297 707 l 1,53,-1
 34 707 l 1,54,-1
 34 542 l 1,55,-1
 74 542 l 1,56,-1
 74 91 l 1,57,-1
 178 -15 l 1,58,-1
 458 -15 l 1,59,-1
 567 91 l 1,60,-1
 567 542 l 1,61,-1
 607 542 l 1,62,-1
 607 707 l 1,63,-1
 343 707 l 1,46,-1
EndSplineSet
EndChar

StartChar: V
Encoding: 86 86 21
Width: 616
GlyphClass: 2
Flags: W
LayerCount: 3
Fore
SplineSet
14 529 m 1,0,-1
 9 529 l 1,1,-1
 9 714 l 1,2,-1
 298 714 l 1,3,-1
 298 706 l 1,4,-1
 318 678 l 1,5,-1
 318 499 l 1,6,-1
 284 499 l 1,7,-1
 322 309 l 1,8,9
 328 336 328 336 334 364.5 c 128,-1,10
 340 393 340 393 345 422 c 0,11,12
 348 436 348 436 350.5 448.5 c 128,-1,13
 353 461 353 461 355 474 c 0,14,15
 356 482 356 482 357 487.5 c 128,-1,16
 358 493 358 493 359 499 c 1,17,-1
 358 499 l 1,18,-1
 337 529 l 1,19,-1
 332 529 l 1,20,-1
 332 714 l 1,21,-1
 621 714 l 1,22,-1
 621 706 l 1,23,-1
 641 678 l 1,24,-1
 641 501 l 1,25,-1
 597 501 l 1,26,-1
 476 -53 l 1,27,-1
 203 -53 l 1,28,-1
 182 -23 l 1,29,-1
 177 -23 l 1,30,-1
 60 499 l 1,31,-1
 35 499 l 1,32,-1
 14 529 l 1,0,-1
290 149 m 1,33,-1
 341 149 l 1,34,-1
 430 579 l 1,35,-1
 384 579 l 1,36,-1
 384 664 l 1,37,-1
 569 664 l 1,38,-1
 569 579 l 1,39,-1
 534 579 l 1,40,-1
 413 27 l 1,41,-1
 220 27 l 1,42,-1
 96 579 l 1,43,-1
 62 579 l 1,44,-1
 62 664 l 1,45,-1
 246 664 l 1,46,-1
 246 579 l 1,47,-1
 200 579 l 1,48,-1
 290 149 l 1,33,-1
290 537 m 1,49,-1
 290 706 l 1,50,-1
 17 706 l 1,51,-1
 17 537 l 1,52,-1
 61 537 l 1,53,-1
 184 -15 l 1,54,-1
 449 -15 l 1,55,-1
 570 539 l 1,56,-1
 613 539 l 1,57,-1
 613 706 l 1,58,-1
 340 706 l 1,59,-1
 340 537 l 1,60,-1
 377 537 l 1,61,62
 370 510 370 510 365 480.5 c 128,-1,63
 360 451 360 451 353 420 c 0,64,65
 345 375 345 375 334.5 327 c 128,-1,66
 324 279 324 279 315 240 c 1,67,-1
 255 537 l 1,68,-1
 290 537 l 1,49,-1
EndSplineSet
EndChar

StartChar: W
Encoding: 87 87 22
Width: 767
GlyphClass: 2
Flags: W
LayerCount: 3
Fore
SplineSet
733 713 m 1,0,-1
 733 705 l 1,1,-1
 753 677 l 1,2,-1
 753 497 l 1,3,-1
 712 497 l 1,4,-1
 712 -54 l 1,5,-1
 520 -54 l 1,6,-1
 499 -24 l 1,7,-1
 495 -24 l 1,8,-1
 408 109 l 1,9,10
 403 102 403 102 398 94.5 c 128,-1,11
 393 87 393 87 387 77 c 2,12,-1
 298 -54 l 1,13,-1
 103 -54 l 1,14,-1
 82 -24 l 1,15,-1
 77 -24 l 1,16,-1
 77 497 l 1,17,-1
 62 497 l 1,18,-1
 41 527 l 1,19,-1
 36 527 l 1,20,-1
 36 713 l 1,21,-1
 326 713 l 1,22,-1
 326 705 l 1,23,-1
 346 677 l 1,24,-1
 346 497 l 1,25,-1
 305 497 l 1,26,-1
 305 404 l 1,27,28
 326 440 326 440 347.5 477 c 128,-1,29
 369 514 369 514 389 550 c 1,30,-1
 405 519 l 1,31,-1
 412 510 l 1,32,-1
 484 375 l 1,33,-1
 484 497 l 1,34,-1
 469 497 l 1,35,-1
 448 527 l 1,36,-1
 443 527 l 1,37,-1
 443 713 l 1,38,-1
 733 713 l 1,0,-1
681 663 m 1,39,-1
 681 577 l 1,40,-1
 640 577 l 1,41,-1
 640 26 l 1,42,-1
 525 26 l 1,43,-1
 391 240 l 1,44,45
 373 215 373 215 354.5 187 c 128,-1,46
 336 159 336 159 319 133 c 256,47,48
 302 107 302 107 283.5 78.5 c 128,-1,49
 265 50 265 50 247 26 c 1,50,-1
 129 26 l 1,51,-1
 129 577 l 1,52,-1
 88 577 l 1,53,-1
 88 663 l 1,54,-1
 274 663 l 1,55,-1
 274 577 l 1,56,-1
 233 577 l 1,57,-1
 233 171 l 1,58,-1
 388 444 l 1,59,-1
 536 163 l 1,60,-1
 536 577 l 1,61,-1
 495 577 l 1,62,-1
 495 663 l 1,63,-1
 681 663 l 1,39,-1
451 705 m 1,64,-1
 451 535 l 1,65,-1
 492 535 l 1,66,-1
 492 341 l 1,67,-1
 389 534 l 1,68,-1
 277 338 l 1,69,-1
 277 535 l 1,70,-1
 318 535 l 1,71,-1
 318 705 l 1,72,-1
 44 705 l 1,73,-1
 44 535 l 1,74,-1
 85 535 l 1,75,-1
 85 -16 l 1,76,-1
 272 -16 l 1,77,78
 309 37 309 37 330 68 c 128,-1,79
 351 99 351 99 363 117 c 0,80,81
 371 131 371 131 377.5 139.5 c 128,-1,82
 384 148 384 148 389 155 c 1,83,-1
 500 -16 l 1,84,-1
 684 -16 l 1,85,-1
 684 535 l 1,86,-1
 725 535 l 1,87,-1
 725 705 l 1,88,-1
 451 705 l 1,64,-1
EndSplineSet
EndChar

StartChar: X
Encoding: 88 88 23
Width: 623
GlyphClass: 2
Flags: W
LayerCount: 3
Fore
SplineSet
104 491 m 1,0,-1
 62 491 l 1,1,-1
 41 521 l 1,2,-1
 36 521 l 1,3,-1
 36 715 l 1,4,-1
 309 715 l 1,5,-1
 309 707 l 1,6,-1
 323 687 l 1,7,-1
 323 715 l 1,8,-1
 604 715 l 1,9,-1
 604 707 l 1,10,-1
 624 679 l 1,11,-1
 624 491 l 1,12,-1
 583 491 l 1,13,-1
 466 312 l 1,14,-1
 535 200 l 1,15,-1
 553 171 l 1,16,-1
 553 170 l 1,17,-1
 557 165 l 1,18,-1
 604 165 l 1,19,-1
 604 157 l 1,20,-1
 624 129 l 1,21,-1
 624 -53 l 1,22,-1
 353 -53 l 1,23,-1
 332 -23 l 1,24,-1
 331 -23 l 1,25,-1
 331 -53 l 1,26,-1
 62 -53 l 1,27,-1
 41 -23 l 1,28,-1
 36 -23 l 1,29,-1
 36 165 l 1,30,-1
 82 165 l 1,31,-1
 200 341 l 1,32,-1
 104 491 l 1,0,-1
115 571 m 1,33,-1
 88 571 l 1,34,-1
 88 665 l 1,35,-1
 268 665 l 1,36,-1
 268 571 l 1,37,-1
 219 571 l 1,38,-1
 325 391 l 1,39,-1
 418 571 l 1,40,-1
 370 571 l 1,41,-1
 370 665 l 1,42,-1
 552 665 l 1,43,-1
 552 571 l 1,44,-1
 532 571 l 1,45,-1
 383 343 l 1,46,-1
 529 115 l 1,47,-1
 552 115 l 1,48,-1
 552 27 l 1,49,-1
 369 27 l 1,50,-1
 369 115 l 1,51,-1
 419 115 l 1,52,-1
 321 285 l 1,53,-1
 219 115 l 1,54,-1
 269 115 l 1,55,-1
 269 27 l 1,56,-1
 88 27 l 1,57,-1
 88 115 l 1,58,-1
 109 115 l 1,59,-1
 262 342 l 1,60,-1
 115 571 l 1,33,-1
210 342 m 1,61,-1
 86 157 l 1,62,-1
 44 157 l 1,63,-1
 44 -15 l 1,64,-1
 303 -15 l 1,65,-1
 303 139 l 1,66,-1
 285 139 l 1,67,68
 294 152 294 152 302.5 166 c 128,-1,69
 311 180 311 180 320 193 c 1,70,-1
 356 139 l 1,71,-1
 335 139 l 1,72,-1
 335 -15 l 1,73,-1
 596 -15 l 1,74,-1
 596 157 l 1,75,-1
 554 157 l 1,76,77
 542 174 542 174 498 245 c 128,-1,78
 454 316 454 316 435 342 c 1,79,80
 464 387 464 387 496 435.5 c 128,-1,81
 528 484 528 484 557 529 c 1,82,-1
 596 529 l 1,83,-1
 596 707 l 1,84,-1
 331 707 l 1,85,-1
 331 529 l 1,86,-1
 353 529 l 1,87,88
 347 515 347 515 338.5 497 c 128,-1,89
 330 479 330 479 323 465 c 1,90,-1
 285 529 l 1,91,-1
 301 529 l 1,92,-1
 301 707 l 1,93,-1
 44 707 l 1,94,-1
 44 529 l 1,95,-1
 90 529 l 1,96,-1
 210 342 l 1,61,-1
EndSplineSet
EndChar

StartChar: Y
Encoding: 89 89 24
Width: 574
GlyphClass: 2
Flags: W
LayerCount: 3
Fore
SplineSet
297 484 m 1,0,-1
 290 484 l 1,1,-1
 294 479 l 1,2,-1
 297 484 l 1,0,-1
583 714 m 1,3,-1
 583 706 l 1,4,-1
 603 678 l 1,5,-1
 603 484 l 1,6,-1
 555 484 l 1,7,8
 544 464 544 464 533 444.5 c 128,-1,9
 522 425 522 425 511 406 c 1,10,-1
 510 406 l 1,11,-1
 491 372 l 1,12,-1
 469 335 l 2,13,14
 456 314 456 314 443.5 292.5 c 128,-1,15
 431 271 431 271 419 247 c 1,16,-1
 419 163 l 1,17,-1
 439 163 l 1,18,-1
 439 155 l 1,19,-1
 459 127 l 1,20,-1
 459 -53 l 1,21,-1
 176 -53 l 1,22,-1
 155 -23 l 1,23,-1
 150 -23 l 1,24,-1
 150 163 l 1,25,-1
 190 163 l 1,26,-1
 190 277 l 2,27,28
 187 282 187 282 182.5 289 c 128,-1,29
 178 296 178 296 176 301 c 2,30,-1
 151 345 l 1,31,-1
 151 344 l 1,32,-1
 133 375 l 2,33,34
 117 401 117 401 102 428 c 128,-1,35
 87 455 87 455 73 484 c 1,36,-1
 35 484 l 1,37,-1
 14 514 l 1,38,-1
 9 514 l 1,39,-1
 9 714 l 1,40,-1
 289 714 l 1,41,-1
 289 706 l 1,42,-1
 305 683 l 1,43,-1
 305 714 l 1,44,-1
 583 714 l 1,3,-1
531 664 m 1,45,-1
 531 564 l 1,46,-1
 500 564 l 1,47,-1
 347 289 l 1,48,-1
 347 113 l 1,49,-1
 387 113 l 1,50,-1
 387 27 l 1,51,-1
 202 27 l 1,52,-1
 202 113 l 1,53,-1
 242 113 l 1,54,-1
 242 289 l 1,55,56
 204 358 204 358 171 418.5 c 128,-1,57
 138 479 138 479 101 545 c 2,58,-1
 91 564 l 1,59,-1
 62 564 l 1,60,-1
 62 664 l 1,61,-1
 246 664 l 1,62,-1
 246 564 l 1,63,-1
 193 564 l 1,64,-1
 295 352 l 1,65,-1
 401 564 l 1,66,-1
 345 564 l 1,67,-1
 345 664 l 1,68,-1
 531 664 l 1,45,-1
313 706 m 1,69,-1
 313 522 l 1,70,-1
 336 522 l 1,71,72
 331 511 331 511 326 504.5 c 128,-1,73
 321 498 321 498 316 492 c 0,74,75
 310 486 310 486 305 479 c 128,-1,76
 300 472 300 472 296 462 c 1,77,78
 286 476 286 476 277 492 c 128,-1,79
 268 508 268 508 258 522 c 1,80,-1
 281 522 l 1,81,-1
 281 706 l 1,82,-1
 17 706 l 1,83,-1
 17 522 l 1,84,-1
 65 522 l 1,85,86
 87 475 87 475 111 432.5 c 128,-1,87
 135 390 135 390 158 349 c 0,88,89
 167 332 167 332 177.5 314 c 128,-1,90
 188 296 188 296 198 279 c 1,91,-1
 198 155 l 1,92,-1
 158 155 l 1,93,-1
 158 -15 l 1,94,-1
 431 -15 l 1,95,-1
 431 155 l 1,96,-1
 391 155 l 1,97,-1
 391 280 l 1,98,99
 408 315 408 315 427.5 346.5 c 128,-1,100
 447 378 447 378 464 408 c 0,101,102
 479 434 479 434 496 462.5 c 128,-1,103
 513 491 513 491 529 522 c 1,104,-1
 575 522 l 1,105,-1
 575 706 l 1,106,-1
 313 706 l 1,69,-1
EndSplineSet
EndChar

StartChar: Z
Encoding: 90 90 25
Width: 614
GlyphClass: 2
Flags: W
LayerCount: 3
Fore
SplineSet
362 177 m 1,0,-1
 362 203 l 1,1,-1
 341 177 l 1,2,-1
 362 177 l 1,0,-1
265 448 m 1,3,-1
 294 485 l 1,4,-1
 265 485 l 1,5,-1
 265 448 l 1,3,-1
255 436 m 1,6,-1
 62 436 l 1,7,-1
 41 466 l 1,8,-1
 36 466 l 1,9,-1
 36 715 l 1,10,-1
 571 715 l 1,11,-1
 571 707 l 1,12,-1
 591 679 l 1,13,-1
 591 499 l 1,14,-1
 384 232 l 1,15,-1
 571 232 l 1,16,-1
 571 224 l 1,17,-1
 591 196 l 1,18,-1
 591 -53 l 1,19,-1
 62 -53 l 1,20,-1
 41 -23 l 1,21,-1
 36 -23 l 1,22,-1
 36 161 l 1,23,-1
 255 436 l 1,6,-1
421 565 m 1,24,-1
 193 565 l 1,25,-1
 193 516 l 1,26,-1
 88 516 l 1,27,-1
 88 665 l 1,28,-1
 519 665 l 1,29,-1
 519 547 l 1,30,-1
 195 127 l 1,31,-1
 414 127 l 1,32,-1
 414 182 l 1,33,-1
 519 182 l 1,34,-1
 519 27 l 1,35,-1
 88 27 l 1,36,-1
 88 145 l 1,37,-1
 421 565 l 1,24,-1
44 158 m 1,38,-1
 44 -15 l 1,39,-1
 563 -15 l 1,40,-1
 563 224 l 1,41,-1
 370 224 l 1,42,-1
 370 169 l 1,43,-1
 281 169 l 1,44,-1
 563 534 l 1,45,-1
 563 707 l 1,46,-1
 44 707 l 1,47,-1
 44 474 l 1,48,-1
 237 474 l 1,49,-1
 237 523 l 1,50,-1
 334 523 l 1,51,-1
 44 158 l 1,38,-1
EndSplineSet
EndChar

StartChar: a
Encoding: 97 97 26
Width: 623
GlyphClass: 2
Flags: W
LayerCount: 3
Fore
SplineSet
99 530 m 1,0,-1
 94 530 l 1,1,-1
 94 714 l 1,2,-1
 532 714 l 1,3,-1
 532 706 l 1,4,-1
 552 678 l 1,5,-1
 552 500 l 1,6,-1
 519 500 l 1,7,-1
 588 168 l 1,8,-1
 620 168 l 1,9,-1
 620 160 l 1,10,-1
 640 132 l 1,11,-1
 640 -53 l 1,12,-1
 357 -53 l 1,13,-1
 336 -23 l 1,14,-1
 331 -23 l 1,15,-1
 331 139 l 1,16,-1
 307 139 l 1,17,-1
 318 124 l 1,18,-1
 318 -53 l 1,19,-1
 35 -53 l 1,20,-1
 14 -23 l 1,21,-1
 9 -23 l 1,22,-1
 9 169 l 1,23,-1
 53 169 l 1,24,-1
 122 500 l 1,25,-1
 120 500 l 1,26,-1
 99 530 l 1,0,-1
242 319 m 1,27,-1
 386 319 l 1,28,-1
 339 544 l 1,29,-1
 289 544 l 1,30,-1
 242 319 l 1,27,-1
568 126 m 1,31,-1
 568 27 l 1,32,-1
 383 27 l 1,33,-1
 383 126 l 1,34,-1
 428 126 l 1,35,-1
 410 219 l 1,36,-1
 218 219 l 1,37,-1
 200 126 l 1,38,-1
 246 126 l 1,39,-1
 246 27 l 1,40,-1
 61 27 l 1,41,-1
 61 135 l 1,42,-1
 95 135 l 1,43,-1
 193 565 l 1,44,-1
 141 565 l 1,45,-1
 141 664 l 1,46,-1
 487 664 l 1,47,-1
 487 565 l 1,48,-1
 436 565 l 1,49,-1
 533 126 l 1,50,-1
 568 126 l 1,31,-1
569 160 m 1,51,-1
 490 538 l 1,52,-1
 524 538 l 1,53,-1
 524 706 l 1,54,-1
 102 706 l 1,55,-1
 102 538 l 1,56,-1
 138 538 l 1,57,58
 130 500 130 500 60 161 c 1,59,-1
 17 161 l 1,60,-1
 17 -15 l 1,61,-1
 290 -15 l 1,62,-1
 290 152 l 1,63,-1
 253 152 l 1,64,65
 253 157 253 157 254 164.5 c 128,-1,66
 255 172 255 172 255 177 c 1,67,-1
 373 177 l 1,68,69
 373 172 373 172 373.5 164 c 128,-1,70
 374 156 374 156 374 151 c 1,71,-1
 339 151 l 1,72,-1
 339 -15 l 1,73,-1
 612 -15 l 1,74,-1
 612 160 l 1,75,-1
 569 160 l 1,51,-1
332 361 m 1,76,-1
 296 361 l 1,77,78
 300 380 300 380 305 399 c 128,-1,79
 310 418 310 418 314 437 c 1,80,-1
 332 361 l 1,76,-1
EndSplineSet
EndChar

StartChar: b
Encoding: 98 98 27
Width: 624
GlyphClass: 2
Flags: W
LayerCount: 3
Fore
SplineSet
305 177 m 1,0,-1
 372 177 l 1,1,-1
 372 216 l 1,2,-1
 305 216 l 1,3,-1
 305 177 l 1,0,-1
305 445 m 1,4,-1
 372 445 l 1,5,-1
 372 485 l 1,6,-1
 305 485 l 1,7,-1
 305 445 l 1,4,-1
581 280 m 1,8,-1
 601 252 l 1,9,-1
 601 35 l 1,10,-1
 509 -53 l 1,11,-1
 62 -53 l 1,12,-1
 41 -23 l 1,13,-1
 36 -23 l 1,14,-1
 36 177 l 1,15,-1
 76 177 l 1,16,-1
 76 485 l 1,17,-1
 62 485 l 1,18,-1
 41 515 l 1,19,-1
 36 515 l 1,20,-1
 36 714 l 1,21,-1
 487 714 l 1,22,-1
 581 624 l 1,23,-1
 581 618 l 1,24,-1
 601 590 l 1,25,-1
 601 368 l 1,26,-1
 540 322 l 1,27,-1
 581 286 l 1,28,-1
 581 280 l 1,8,-1
529 88 m 1,29,-1
 465 27 l 1,30,-1
 88 27 l 1,31,-1
 88 127 l 1,32,-1
 128 127 l 1,33,-1
 128 565 l 1,34,-1
 88 565 l 1,35,-1
 88 664 l 1,36,-1
 465 664 l 1,37,-1
 529 603 l 1,38,-1
 529 422 l 1,39,-1
 446 347 l 1,40,-1
 529 265 l 1,41,-1
 529 88 l 1,29,-1
424 127 m 1,42,-1
 424 296 l 1,43,-1
 233 296 l 1,44,-1
 233 127 l 1,45,-1
 424 127 l 1,42,-1
424 395 m 1,46,-1
 424 565 l 1,47,-1
 233 565 l 1,48,-1
 233 395 l 1,49,-1
 424 395 l 1,46,-1
573 283 m 1,50,-1
 500 347 l 1,51,-1
 573 403 l 1,52,-1
 573 621 l 1,53,-1
 484 706 l 1,54,-1
 44 706 l 1,55,-1
 44 523 l 1,56,-1
 84 523 l 1,57,-1
 84 169 l 1,58,-1
 44 169 l 1,59,-1
 44 -15 l 1,60,-1
 484 -15 l 1,61,-1
 573 70 l 1,62,-1
 573 283 l 1,50,-1
277 437 m 1,63,-1
 277 523 l 1,64,-1
 380 523 l 1,65,-1
 380 437 l 1,66,-1
 277 437 l 1,63,-1
277 169 m 1,67,-1
 277 254 l 1,68,-1
 380 254 l 1,69,-1
 380 169 l 1,70,-1
 277 169 l 1,67,-1
EndSplineSet
EndChar

StartChar: c
Encoding: 99 99 28
Width: 620
GlyphClass: 2
Flags: W
LayerCount: 3
Fore
SplineSet
577 270 m 1,0,-1
 597 242 l 1,1,-1
 597 35 l 1,2,-1
 504 -53 l 1,3,-1
 154 -53 l 1,4,-1
 62 35 l 1,5,-1
 47 56 l 1,6,-1
 36 67 l 1,7,-1
 36 624 l 1,8,-1
 130 714 l 1,9,-1
 482 714 l 1,10,-1
 577 624 l 1,11,-1
 577 618 l 1,12,-1
 597 590 l 1,13,-1
 597 386 l 1,14,-1
 394 386 l 1,15,-1
 373 416 l 1,16,-1
 368 416 l 1,17,-1
 368 485 l 1,18,-1
 265 485 l 1,19,-1
 265 176 l 1,20,-1
 368 176 l 1,21,-1
 368 278 l 1,22,-1
 577 278 l 1,23,-1
 577 270 l 1,0,-1
525 88 m 1,24,-1
 461 27 l 1,25,-1
 152 27 l 1,26,-1
 88 88 l 1,27,-1
 88 603 l 1,28,-1
 152 664 l 1,29,-1
 461 664 l 1,30,-1
 525 603 l 1,31,-1
 525 466 l 1,32,-1
 420 466 l 1,33,-1
 420 565 l 1,34,-1
 193 565 l 1,35,-1
 193 126 l 1,36,-1
 420 126 l 1,37,-1
 420 228 l 1,38,-1
 525 228 l 1,39,-1
 525 88 l 1,24,-1
569 270 m 1,40,-1
 376 270 l 1,41,-1
 376 168 l 1,42,-1
 237 168 l 1,43,-1
 237 523 l 1,44,-1
 376 523 l 1,45,-1
 376 424 l 1,46,-1
 569 424 l 1,47,-1
 569 621 l 1,48,-1
 479 706 l 1,49,-1
 133 706 l 1,50,-1
 44 621 l 1,51,-1
 44 70 l 1,52,-1
 133 -15 l 1,53,-1
 479 -15 l 1,54,-1
 569 70 l 1,55,-1
 569 270 l 1,40,-1
EndSplineSet
EndChar

StartChar: d
Encoding: 100 100 29
Width: 613
GlyphClass: 2
Flags: W
LayerCount: 3
Fore
SplineSet
305 176 m 1,0,-1
 384 176 l 1,1,-1
 384 485 l 1,2,-1
 305 485 l 1,3,-1
 305 176 l 1,0,-1
594 578 m 1,4,-1
 614 550 l 1,5,-1
 614 72 l 1,6,-1
 486 -53 l 1,7,-1
 62 -53 l 1,8,-1
 41 -23 l 1,9,-1
 36 -23 l 1,10,-1
 36 176 l 1,11,-1
 76 176 l 1,12,-1
 76 485 l 1,13,-1
 62 485 l 1,14,-1
 41 515 l 1,15,-1
 36 515 l 1,16,-1
 36 714 l 1,17,-1
 461 714 l 1,18,-1
 594 584 l 1,19,-1
 594 578 l 1,4,-1
541 125 m 1,20,-1
 442 27 l 1,21,-1
 88 27 l 1,22,-1
 88 126 l 1,23,-1
 128 126 l 1,24,-1
 128 565 l 1,25,-1
 88 565 l 1,26,-1
 88 664 l 1,27,-1
 440 664 l 1,28,-1
 541 563 l 1,29,-1
 541 125 l 1,20,-1
436 126 m 1,30,-1
 436 565 l 1,31,-1
 233 565 l 1,32,-1
 233 126 l 1,33,-1
 436 126 l 1,30,-1
586 581 m 1,34,-1
 458 706 l 1,35,-1
 44 706 l 1,36,-1
 44 523 l 1,37,-1
 84 523 l 1,38,-1
 84 168 l 1,39,-1
 44 168 l 1,40,-1
 44 -15 l 1,41,-1
 461 -15 l 1,42,-1
 586 107 l 1,43,-1
 586 581 l 1,34,-1
277 168 m 1,44,-1
 277 523 l 1,45,-1
 392 523 l 1,46,-1
 392 168 l 1,47,-1
 277 168 l 1,44,-1
EndSplineSet
EndChar

StartChar: e
Encoding: 101 101 30
Width: 616
GlyphClass: 2
Flags: W
LayerCount: 3
Fore
SplineSet
305 177 m 1,0,-1
 363 177 l 1,1,-1
 363 216 l 1,2,-1
 305 216 l 1,3,-1
 305 177 l 1,0,-1
305 446 m 1,4,-1
 380 446 l 1,5,-1
 368 463 l 1,6,-1
 363 463 l 1,7,-1
 363 485 l 1,8,-1
 305 485 l 1,9,-1
 305 446 l 1,4,-1
573 215 m 1,10,-1
 593 187 l 1,11,-1
 593 -53 l 1,12,-1
 62 -53 l 1,13,-1
 41 -23 l 1,14,-1
 36 -23 l 1,15,-1
 36 177 l 1,16,-1
 77 177 l 1,17,-1
 77 485 l 1,18,-1
 62 485 l 1,19,-1
 41 515 l 1,20,-1
 36 515 l 1,21,-1
 36 715 l 1,22,-1
 573 715 l 1,23,-1
 573 707 l 1,24,-1
 593 679 l 1,25,-1
 593 433 l 1,26,-1
 445 433 l 1,27,-1
 461 410 l 1,28,-1
 461 223 l 1,29,-1
 573 223 l 1,30,-1
 573 215 l 1,10,-1
520 27 m 1,31,-1
 88 27 l 1,32,-1
 88 127 l 1,33,-1
 129 127 l 1,34,-1
 129 565 l 1,35,-1
 88 565 l 1,36,-1
 88 665 l 1,37,-1
 520 665 l 1,38,-1
 520 513 l 1,39,-1
 415 513 l 1,40,-1
 415 565 l 1,41,-1
 233 565 l 1,42,-1
 233 396 l 1,43,-1
 389 396 l 1,44,-1
 389 296 l 1,45,-1
 233 296 l 1,46,-1
 233 127 l 1,47,-1
 415 127 l 1,48,-1
 415 173 l 1,49,-1
 520 173 l 1,50,-1
 520 27 l 1,31,-1
565 215 m 1,51,-1
 371 215 l 1,52,-1
 371 169 l 1,53,-1
 277 169 l 1,54,-1
 277 254 l 1,55,-1
 433 254 l 1,56,-1
 433 438 l 1,57,-1
 277 438 l 1,58,-1
 277 523 l 1,59,-1
 371 523 l 1,60,-1
 371 471 l 1,61,-1
 565 471 l 1,62,-1
 565 707 l 1,63,-1
 44 707 l 1,64,-1
 44 523 l 1,65,-1
 85 523 l 1,66,-1
 85 169 l 1,67,-1
 44 169 l 1,68,-1
 44 -15 l 1,69,-1
 565 -15 l 1,70,-1
 565 215 l 1,51,-1
EndSplineSet
EndChar

StartChar: f
Encoding: 102 102 31
Width: 571
GlyphClass: 2
Flags: W
LayerCount: 3
Fore
SplineSet
306 446 m 1,0,-1
 360 446 l 1,1,-1
 349 462 l 1,2,-1
 344 462 l 1,3,-1
 344 485 l 1,4,-1
 306 485 l 1,5,-1
 306 446 l 1,0,-1
553 707 m 1,6,-1
 573 679 l 1,7,-1
 573 432 l 1,8,-1
 451 432 l 1,9,-1
 467 410 l 1,10,-1
 467 216 l 1,11,-1
 306 216 l 1,12,-1
 306 177 l 1,13,-1
 326 177 l 1,14,-1
 326 169 l 1,15,-1
 346 141 l 1,16,-1
 346 -53 l 1,17,-1
 62 -53 l 1,18,-1
 41 -23 l 1,19,-1
 36 -23 l 1,20,-1
 36 177 l 1,21,-1
 77 177 l 1,22,-1
 77 485 l 1,23,-1
 62 485 l 1,24,-1
 41 515 l 1,25,-1
 36 515 l 1,26,-1
 36 715 l 1,27,-1
 553 715 l 1,28,-1
 553 707 l 1,6,-1
500 512 m 1,29,-1
 397 512 l 1,30,-1
 397 565 l 1,31,-1
 234 565 l 1,32,-1
 234 396 l 1,33,-1
 394 396 l 1,34,-1
 394 296 l 1,35,-1
 234 296 l 1,36,-1
 234 127 l 1,37,-1
 274 127 l 1,38,-1
 274 27 l 1,39,-1
 88 27 l 1,40,-1
 88 127 l 1,41,-1
 129 127 l 1,42,-1
 129 565 l 1,43,-1
 88 565 l 1,44,-1
 88 665 l 1,45,-1
 500 665 l 1,46,-1
 500 512 l 1,29,-1
545 707 m 1,47,-1
 44 707 l 1,48,-1
 44 523 l 1,49,-1
 85 523 l 1,50,-1
 85 169 l 1,51,-1
 44 169 l 1,52,-1
 44 -15 l 1,53,-1
 318 -15 l 1,54,-1
 318 169 l 1,55,-1
 278 169 l 1,56,-1
 278 254 l 1,57,-1
 439 254 l 1,58,-1
 439 438 l 1,59,-1
 278 438 l 1,60,-1
 278 523 l 1,61,-1
 352 523 l 1,62,-1
 352 470 l 1,63,-1
 545 470 l 1,64,-1
 545 707 l 1,47,-1
EndSplineSet
EndChar

StartChar: g
Encoding: 103 103 32
Width: 614
GlyphClass: 2
Flags: W
LayerCount: 3
Fore
SplineSet
571 399 m 1,0,-1
 591 371 l 1,1,-1
 591 35 l 1,2,-1
 499 -53 l 1,3,-1
 154 -53 l 1,4,-1
 62 35 l 1,5,-1
 47 56 l 1,6,-1
 36 67 l 1,7,-1
 36 625 l 1,8,-1
 130 715 l 1,9,-1
 477 715 l 1,10,-1
 571 625 l 1,11,-1
 571 619 l 1,12,-1
 591 591 l 1,13,-1
 591 419 l 1,14,-1
 388 419 l 1,15,-1
 367 449 l 1,16,-1
 362 449 l 1,17,-1
 362 485 l 1,18,-1
 265 485 l 1,19,-1
 265 407 l 1,20,-1
 571 407 l 1,21,-1
 571 399 l 1,0,-1
519 88 m 1,22,-1
 455 27 l 1,23,-1
 152 27 l 1,24,-1
 88 88 l 1,25,-1
 88 604 l 1,26,-1
 152 665 l 1,27,-1
 455 665 l 1,28,-1
 519 604 l 1,29,-1
 519 499 l 1,30,-1
 414 499 l 1,31,-1
 414 565 l 1,32,-1
 193 565 l 1,33,-1
 193 127 l 1,34,-1
 414 127 l 1,35,-1
 414 258 l 1,36,-1
 307 258 l 1,37,-1
 307 357 l 1,38,-1
 519 357 l 1,39,-1
 519 88 l 1,22,-1
563 399 m 1,40,-1
 263 399 l 1,41,-1
 263 216 l 1,42,-1
 370 216 l 1,43,-1
 370 169 l 1,44,-1
 237 169 l 1,45,-1
 237 523 l 1,46,-1
 370 523 l 1,47,-1
 370 457 l 1,48,-1
 563 457 l 1,49,-1
 563 622 l 1,50,-1
 474 707 l 1,51,-1
 133 707 l 1,52,-1
 44 622 l 1,53,-1
 44 70 l 1,54,-1
 133 -15 l 1,55,-1
 474 -15 l 1,56,-1
 563 70 l 1,57,-1
 563 399 l 1,40,-1
EndSplineSet
EndChar

StartChar: h
Encoding: 104 104 33
Width: 680
GlyphClass: 2
Flags: W
LayerCount: 3
Fore
SplineSet
352 531 m 1,0,-1
 347 531 l 1,1,-1
 347 715 l 1,2,-1
 637 715 l 1,3,-1
 637 707 l 1,4,-1
 657 679 l 1,5,-1
 657 501 l 1,6,-1
 616 501 l 1,7,-1
 616 157 l 1,8,-1
 637 157 l 1,9,-1
 637 149 l 1,10,-1
 657 121 l 1,11,-1
 657 -53 l 1,12,-1
 373 -53 l 1,13,-1
 352 -23 l 1,14,-1
 347 -23 l 1,15,-1
 347 157 l 1,16,-1
 387 157 l 1,17,-1
 387 216 l 1,18,-1
 305 216 l 1,19,-1
 305 157 l 1,20,-1
 325 157 l 1,21,-1
 325 149 l 1,22,-1
 345 121 l 1,23,-1
 345 -53 l 1,24,-1
 62 -53 l 1,25,-1
 41 -23 l 1,26,-1
 36 -23 l 1,27,-1
 36 157 l 1,28,-1
 76 157 l 1,29,-1
 76 501 l 1,30,-1
 62 501 l 1,31,-1
 41 531 l 1,32,-1
 36 531 l 1,33,-1
 36 715 l 1,34,-1
 325 715 l 1,35,-1
 325 707 l 1,36,-1
 345 679 l 1,37,-1
 345 501 l 1,38,-1
 305 501 l 1,39,-1
 305 446 l 1,40,-1
 387 446 l 1,41,-1
 387 501 l 1,42,-1
 373 501 l 1,43,-1
 352 531 l 1,0,-1
584 107 m 1,44,-1
 584 27 l 1,45,-1
 399 27 l 1,46,-1
 399 107 l 1,47,-1
 440 107 l 1,48,-1
 440 296 l 1,49,-1
 233 296 l 1,50,-1
 233 107 l 1,51,-1
 273 107 l 1,52,-1
 273 27 l 1,53,-1
 88 27 l 1,54,-1
 88 107 l 1,55,-1
 128 107 l 1,56,-1
 128 581 l 1,57,-1
 88 581 l 1,58,-1
 88 665 l 1,59,-1
 273 665 l 1,60,-1
 273 581 l 1,61,-1
 233 581 l 1,62,-1
 233 396 l 1,63,-1
 440 396 l 1,64,-1
 440 581 l 1,65,-1
 399 581 l 1,66,-1
 399 665 l 1,67,-1
 584 665 l 1,68,-1
 584 581 l 1,69,-1
 544 581 l 1,70,-1
 544 107 l 1,71,-1
 584 107 l 1,44,-1
588 149 m 1,72,-1
 588 539 l 1,73,-1
 629 539 l 1,74,-1
 629 707 l 1,75,-1
 355 707 l 1,76,-1
 355 539 l 1,77,-1
 395 539 l 1,78,-1
 395 438 l 1,79,-1
 277 438 l 1,80,-1
 277 539 l 1,81,-1
 317 539 l 1,82,-1
 317 707 l 1,83,-1
 44 707 l 1,84,-1
 44 539 l 1,85,-1
 84 539 l 1,86,-1
 84 149 l 1,87,-1
 44 149 l 1,88,-1
 44 -15 l 1,89,-1
 317 -15 l 1,90,-1
 317 149 l 1,91,-1
 277 149 l 1,92,-1
 277 254 l 1,93,-1
 395 254 l 1,94,-1
 395 149 l 1,95,-1
 355 149 l 1,96,-1
 355 -15 l 1,97,-1
 629 -15 l 1,98,-1
 629 149 l 1,99,-1
 588 149 l 1,72,-1
EndSplineSet
EndChar

StartChar: i
Encoding: 105 105 34
Width: 344
GlyphClass: 2
Flags: W
LayerCount: 3
Fore
SplineSet
41 535 m 1,0,-1
 36 535 l 1,1,-1
 36 715 l 1,2,-1
 325 715 l 1,3,-1
 325 707 l 1,4,-1
 345 679 l 1,5,-1
 345 505 l 1,6,-1
 305 505 l 1,7,-1
 305 157 l 1,8,-1
 325 157 l 1,9,-1
 325 149 l 1,10,-1
 345 121 l 1,11,-1
 345 -53 l 1,12,-1
 62 -53 l 1,13,-1
 41 -23 l 1,14,-1
 36 -23 l 1,15,-1
 36 157 l 1,16,-1
 76 157 l 1,17,-1
 76 505 l 1,18,-1
 62 505 l 1,19,-1
 41 535 l 1,0,-1
273 107 m 1,20,-1
 273 27 l 1,21,-1
 88 27 l 1,22,-1
 88 107 l 1,23,-1
 128 107 l 1,24,-1
 128 585 l 1,25,-1
 88 585 l 1,26,-1
 88 665 l 1,27,-1
 273 665 l 1,28,-1
 273 585 l 1,29,-1
 233 585 l 1,30,-1
 233 107 l 1,31,-1
 273 107 l 1,20,-1
317 543 m 1,32,-1
 317 707 l 1,33,-1
 44 707 l 1,34,-1
 44 543 l 1,35,-1
 84 543 l 1,36,-1
 84 149 l 1,37,-1
 44 149 l 1,38,-1
 44 -15 l 1,39,-1
 317 -15 l 1,40,-1
 317 149 l 1,41,-1
 277 149 l 1,42,-1
 277 543 l 1,43,-1
 317 543 l 1,32,-1
EndSplineSet
EndChar

StartChar: j
Encoding: 106 106 35
Width: 536
GlyphClass: 2
Flags: W
LayerCount: 3
Fore
SplineSet
502 715 m 1,0,-1
 502 707 l 1,1,-1
 522 679 l 1,2,-1
 522 506 l 1,3,-1
 481 506 l 1,4,-1
 481 35 l 1,5,-1
 389 -53 l 1,6,-1
 120 -53 l 1,7,-1
 28 35 l 1,8,-1
 13 56 l 1,9,-1
 2 67 l 1,10,-1
 2 263 l 1,11,-1
 210 263 l 1,12,-1
 210 255 l 1,13,-1
 230 227 l 1,14,-1
 230 177 l 1,15,-1
 253 177 l 1,16,-1
 253 506 l 1,17,-1
 238 506 l 1,18,-1
 217 536 l 1,19,-1
 212 536 l 1,20,-1
 212 715 l 1,21,-1
 502 715 l 1,0,-1
450 665 m 1,22,-1
 450 586 l 1,23,-1
 409 586 l 1,24,-1
 409 88 l 1,25,-1
 345 27 l 1,26,-1
 118 27 l 1,27,-1
 54 88 l 1,28,-1
 54 213 l 1,29,-1
 158 213 l 1,30,-1
 158 127 l 1,31,-1
 305 127 l 1,32,-1
 305 586 l 1,33,-1
 264 586 l 1,34,-1
 264 665 l 1,35,-1
 450 665 l 1,22,-1
220 707 m 1,36,-1
 220 544 l 1,37,-1
 261 544 l 1,38,-1
 261 169 l 1,39,-1
 202 169 l 1,40,-1
 202 255 l 1,41,-1
 10 255 l 1,42,-1
 10 70 l 1,43,-1
 99 -15 l 1,44,-1
 364 -15 l 1,45,-1
 453 70 l 1,46,-1
 453 544 l 1,47,-1
 494 544 l 1,48,-1
 494 707 l 1,49,-1
 220 707 l 1,36,-1
EndSplineSet
EndChar

StartChar: k
Encoding: 107 107 36
Width: 659
GlyphClass: 2
Flags: W
LayerCount: 3
Fore
SplineSet
305 166 m 1,0,-1
 345 166 l 1,1,-1
 305 213 l 1,2,-1
 305 166 l 1,0,-1
41 535 m 1,3,-1
 36 535 l 1,4,-1
 36 715 l 1,5,-1
 616 715 l 1,6,-1
 616 707 l 1,7,-1
 636 679 l 1,8,-1
 636 505 l 1,9,-1
 586 505 l 1,10,-1
 440 326 l 1,11,-1
 490 266 l 2,12,13
 508 243 508 243 526 221.5 c 128,-1,14
 544 200 544 200 564 177 c 1,15,-1
 616 177 l 1,16,-1
 616 169 l 1,17,-1
 636 141 l 1,18,-1
 636 -53 l 1,19,-1
 352 -53 l 1,20,-1
 339 -34 l 1,21,-1
 339 -53 l 1,22,-1
 62 -53 l 1,23,-1
 41 -23 l 1,24,-1
 36 -23 l 1,25,-1
 36 177 l 1,26,-1
 77 177 l 1,27,-1
 77 505 l 1,28,-1
 62 505 l 1,29,-1
 41 535 l 1,3,-1
541 585 m 1,30,-1
 349 355 l 1,31,-1
 541 127 l 1,32,-1
 563 127 l 1,33,-1
 563 27 l 1,34,-1
 378 27 l 1,35,-1
 378 127 l 1,36,-1
 443 127 l 1,37,38
 424 148 424 148 405 170.5 c 128,-1,39
 386 193 386 193 368 216 c 0,40,41
 349 239 349 239 331 261.5 c 128,-1,42
 313 284 313 284 295 305 c 1,43,-1
 233 305 l 1,44,-1
 233 127 l 1,45,-1
 274 127 l 1,46,-1
 274 27 l 1,47,-1
 88 27 l 1,48,-1
 88 127 l 1,49,-1
 129 127 l 1,50,-1
 129 585 l 1,51,-1
 88 585 l 1,52,-1
 88 665 l 1,53,-1
 274 665 l 1,54,-1
 274 585 l 1,55,-1
 233 585 l 1,56,-1
 233 405 l 1,57,-1
 295 405 l 1,58,59
 313 426 313 426 368.5 495 c 128,-1,60
 424 564 424 564 443 585 c 1,61,-1
 378 585 l 1,62,-1
 378 665 l 1,63,-1
 563 665 l 1,64,-1
 563 585 l 1,65,-1
 541 585 l 1,30,-1
608 543 m 1,66,-1
 608 707 l 1,67,-1
 334 707 l 1,68,-1
 334 543 l 1,69,-1
 348 543 l 1,70,71
 339 532 339 532 313 497 c 128,-1,72
 287 462 287 462 279 452 c 1,73,74
 279 462 279 462 278 498.5 c 128,-1,75
 277 535 277 535 277 543 c 1,76,-1
 309 543 l 1,77,-1
 309 707 l 1,78,-1
 44 707 l 1,79,-1
 44 543 l 1,80,-1
 85 543 l 1,81,-1
 85 169 l 1,82,-1
 44 169 l 1,83,-1
 44 -15 l 1,84,-1
 311 -15 l 1,85,-1
 311 158 l 1,86,-1
 277 158 l 1,87,-1
 277 259 l 1,88,-1
 365 158 l 1,89,-1
 334 158 l 1,90,-1
 334 -15 l 1,91,-1
 608 -15 l 1,92,-1
 608 169 l 1,93,-1
 561 169 l 1,94,-1
 407 355 l 1,95,-1
 561 543 l 1,96,-1
 608 543 l 1,66,-1
EndSplineSet
EndChar

StartChar: l
Encoding: 108 108 37
Width: 567
GlyphClass: 2
Flags: W
LayerCount: 3
Fore
SplineSet
541 253 m 1,0,-1
 541 245 l 1,1,-1
 561 217 l 1,2,-1
 561 -53 l 1,3,-1
 62 -53 l 1,4,-1
 41 -23 l 1,5,-1
 36 -23 l 1,6,-1
 36 176 l 1,7,-1
 76 176 l 1,8,-1
 76 497 l 1,9,-1
 62 497 l 1,10,-1
 41 527 l 1,11,-1
 36 527 l 1,12,-1
 36 714 l 1,13,-1
 325 714 l 1,14,-1
 325 706 l 1,15,-1
 345 678 l 1,16,-1
 345 497 l 1,17,-1
 305 497 l 1,18,-1
 305 176 l 1,19,-1
 332 176 l 1,20,-1
 332 253 l 1,21,-1
 541 253 l 1,0,-1
489 203 m 1,22,-1
 489 27 l 1,23,-1
 88 27 l 1,24,-1
 88 126 l 1,25,-1
 128 126 l 1,26,-1
 128 577 l 1,27,-1
 88 577 l 1,28,-1
 88 664 l 1,29,-1
 273 664 l 1,30,-1
 273 577 l 1,31,-1
 233 577 l 1,32,-1
 233 126 l 1,33,-1
 384 126 l 1,34,-1
 384 203 l 1,35,-1
 489 203 l 1,22,-1
340 245 m 1,36,-1
 340 168 l 1,37,-1
 277 168 l 1,38,-1
 277 535 l 1,39,-1
 317 535 l 1,40,-1
 317 706 l 1,41,-1
 44 706 l 1,42,-1
 44 535 l 1,43,-1
 84 535 l 1,44,-1
 84 168 l 1,45,-1
 44 168 l 1,46,-1
 44 -15 l 1,47,-1
 533 -15 l 1,48,-1
 533 245 l 1,49,-1
 340 245 l 1,36,-1
EndSplineSet
EndChar

StartChar: m
Encoding: 109 109 38
Width: 756
GlyphClass: 2
Flags: W
LayerCount: 3
Fore
SplineSet
464 219 m 1,0,1
 456 207 456 207 450 194.5 c 128,-1,2
 444 182 444 182 437 170 c 1,3,-1
 464 170 l 1,4,-1
 464 219 l 1,0,1
41 515 m 1,5,-1
 36 515 l 1,6,-1
 36 715 l 1,7,-1
 263 715 l 1,8,-1
 374 525 l 1,9,-1
 487 715 l 1,10,-1
 713 715 l 1,11,-1
 713 707 l 1,12,-1
 733 679 l 1,13,-1
 733 485 l 1,14,-1
 693 485 l 1,15,-1
 693 170 l 1,16,-1
 713 170 l 1,17,-1
 713 162 l 1,18,-1
 733 134 l 1,19,-1
 733 -53 l 1,20,-1
 450 -53 l 1,21,-1
 429 -23 l 1,22,-1
 424 -23 l 1,23,-1
 424 144 l 1,24,25
 422 140 422 140 422 140 c 1,26,-1
 396 92 l 1,27,-1
 375 122 l 1,28,29
 373 120 373 120 373 118 c 1,30,-1
 305 248 l 1,31,-1
 305 170 l 1,32,-1
 325 170 l 1,33,-1
 325 162 l 1,34,-1
 345 134 l 1,35,-1
 345 -53 l 1,36,-1
 62 -53 l 1,37,-1
 41 -23 l 1,38,-1
 36 -23 l 1,39,-1
 36 170 l 1,40,-1
 76 170 l 1,41,-1
 76 485 l 1,42,-1
 62 485 l 1,43,-1
 41 515 l 1,5,-1
661 120 m 1,44,-1
 661 27 l 1,45,-1
 476 27 l 1,46,-1
 476 120 l 1,47,-1
 516 120 l 1,48,-1
 513 509 l 1,49,50
 479 439 479 439 443.5 368 c 128,-1,51
 408 297 408 297 373 227 c 1,52,-1
 227 505 l 1,53,-1
 233 120 l 1,54,-1
 273 120 l 1,55,-1
 273 27 l 1,56,-1
 88 27 l 1,57,-1
 88 120 l 1,58,-1
 128 120 l 1,59,-1
 128 565 l 1,60,-1
 88 565 l 1,61,-1
 88 665 l 1,62,-1
 233 665 l 1,63,-1
 373 423 l 1,64,-1
 518 665 l 1,65,-1
 661 665 l 1,66,-1
 661 565 l 1,67,-1
 621 565 l 1,68,-1
 621 120 l 1,69,-1
 661 120 l 1,44,-1
705 523 m 1,70,-1
 705 707 l 1,71,-1
 492 707 l 1,72,-1
 374 509 l 1,73,-1
 259 707 l 1,74,-1
 44 707 l 1,75,-1
 44 523 l 1,76,-1
 84 523 l 1,77,-1
 84 162 l 1,78,-1
 44 162 l 1,79,-1
 44 -15 l 1,80,-1
 317 -15 l 1,81,-1
 317 162 l 1,82,-1
 277 162 l 1,83,-1
 277 316 l 1,84,-1
 373 134 l 1,85,-1
 395 175 l 2,86,87
 414 210 414 210 433 245.5 c 128,-1,88
 452 281 452 281 472 316 c 1,89,-1
 472 162 l 1,90,-1
 432 162 l 1,91,-1
 432 -15 l 1,92,-1
 705 -15 l 1,93,-1
 705 162 l 1,94,-1
 665 162 l 1,95,-1
 665 523 l 1,96,-1
 705 523 l 1,70,-1
EndSplineSet
EndChar

StartChar: n
Encoding: 110 110 39
Width: 664
GlyphClass: 2
Flags: W
LayerCount: 3
Fore
SplineSet
381 480 m 1,0,-1
 381 501 l 1,1,-1
 372 501 l 1,2,-1
 381 480 l 1,0,-1
630 715 m 1,3,-1
 630 707 l 1,4,-1
 650 679 l 1,5,-1
 650 501 l 1,6,-1
 609 501 l 1,7,-1
 609 -53 l 1,8,-1
 410 -53 l 1,9,-1
 389 -23 l 1,10,-1
 385 -23 l 1,11,-1
 346 67 l 1,12,-1
 346 -53 l 1,13,-1
 62 -53 l 1,14,-1
 41 -23 l 1,15,-1
 36 -23 l 1,16,-1
 36 177 l 1,17,-1
 77 177 l 1,18,-1
 77 503 l 1,19,-1
 62 503 l 1,20,-1
 41 533 l 1,21,-1
 36 533 l 1,22,-1
 36 715 l 1,23,-1
 274 715 l 1,24,-1
 280 699 l 1,25,-1
 295 679 l 1,26,-1
 340 575 l 1,27,-1
 340 715 l 1,28,-1
 630 715 l 1,3,-1
578 665 m 1,29,-1
 578 581 l 1,30,-1
 537 581 l 1,31,-1
 537 27 l 1,32,-1
 421 27 l 1,33,-1
 234 465 l 1,34,-1
 233 127 l 1,35,-1
 274 127 l 1,36,-1
 274 27 l 1,37,-1
 88 27 l 1,38,-1
 88 127 l 1,39,-1
 129 127 l 1,40,-1
 129 583 l 1,41,-1
 88 583 l 1,42,-1
 88 665 l 1,43,-1
 239 665 l 1,44,-1
 435 233 l 1,45,-1
 433 581 l 1,46,-1
 392 581 l 1,47,-1
 392 665 l 1,48,-1
 578 665 l 1,29,-1
348 707 m 1,49,-1
 348 539 l 1,50,-1
 389 539 l 1,51,-1
 389 428 l 1,52,-1
 268 707 l 1,53,-1
 44 707 l 1,54,-1
 44 541 l 1,55,-1
 85 541 l 1,56,-1
 85 169 l 1,57,-1
 44 169 l 1,58,-1
 44 -15 l 1,59,-1
 318 -15 l 1,60,-1
 318 156 l 1,61,-1
 391 -15 l 1,62,-1
 581 -15 l 1,63,-1
 581 539 l 1,64,-1
 622 539 l 1,65,-1
 622 707 l 1,66,-1
 348 707 l 1,49,-1
277 252 m 1,67,68
 285 232 285 232 294.5 210.5 c 128,-1,69
 304 189 304 189 313 169 c 1,70,-1
 277 169 l 1,71,-1
 277 252 l 1,67,68
EndSplineSet
EndChar

StartChar: o
Encoding: 111 111 40
Width: 599
GlyphClass: 2
Flags: W
LayerCount: 3
Fore
SplineSet
263 176 m 1,0,-1
 347 176 l 1,1,-1
 347 485 l 1,2,-1
 263 485 l 1,3,-1
 263 176 l 1,0,-1
556 599 m 1,4,-1
 576 571 l 1,5,-1
 576 61 l 1,6,-1
 462 -53 l 1,7,-1
 171 -53 l 1,8,-1
 61 57 l 1,9,-1
 47 77 l 1,10,-1
 35 89 l 1,11,-1
 35 601 l 1,12,-1
 146 714 l 1,13,-1
 438 714 l 1,14,-1
 556 605 l 1,15,-1
 556 599 l 1,4,-1
504 115 m 1,16,-1
 418 27 l 1,17,-1
 170 27 l 1,18,-1
 87 111 l 1,19,-1
 87 580 l 1,20,21
 105 600 105 600 126.5 622 c 128,-1,22
 148 644 148 644 168 664 c 1,23,-1
 417 664 l 1,24,-1
 504 584 l 1,25,-1
 504 115 l 1,16,-1
399 126 m 1,26,-1
 399 565 l 1,27,-1
 191 565 l 1,28,-1
 191 126 l 1,29,-1
 399 126 l 1,26,-1
548 602 m 1,30,-1
 435 706 l 1,31,-1
 149 706 l 1,32,-1
 43 598 l 1,33,-1
 43 93 l 1,34,-1
 151 -15 l 1,35,-1
 436 -15 l 1,36,-1
 548 97 l 1,37,-1
 548 602 l 1,30,-1
235 168 m 1,38,-1
 235 523 l 1,39,-1
 355 523 l 1,40,-1
 355 168 l 1,41,-1
 235 168 l 1,38,-1
EndSplineSet
EndChar

StartChar: p
Encoding: 112 112 41
Width: 602
GlyphClass: 2
Flags: W
LayerCount: 3
Fore
SplineSet
305 401 m 1,0,-1
 359 401 l 1,1,-1
 359 485 l 1,2,-1
 305 485 l 1,3,-1
 305 401 l 1,0,-1
568 625 m 1,4,-1
 568 619 l 1,5,-1
 588 591 l 1,6,-1
 588 259 l 1,7,-1
 496 171 l 1,8,-1
 305 171 l 1,9,-1
 305 160 l 1,10,-1
 325 160 l 1,11,-1
 325 152 l 1,12,-1
 345 124 l 1,13,-1
 345 -53 l 1,14,-1
 62 -53 l 1,15,-1
 41 -23 l 1,16,-1
 36 -23 l 1,17,-1
 36 160 l 1,18,-1
 76 160 l 1,19,-1
 76 499 l 1,20,-1
 62 499 l 1,21,-1
 41 529 l 1,22,-1
 36 529 l 1,23,-1
 36 714 l 1,24,-1
 473 714 l 1,25,-1
 568 625 l 1,4,-1
516 604 m 1,26,-1
 516 312 l 1,27,-1
 452 251 l 1,28,-1
 233 251 l 1,29,-1
 233 110 l 1,30,-1
 273 110 l 1,31,-1
 273 27 l 1,32,-1
 88 27 l 1,33,-1
 88 110 l 1,34,-1
 128 110 l 1,35,-1
 128 579 l 1,36,-1
 88 579 l 1,37,-1
 88 664 l 1,38,-1
 452 664 l 1,39,-1
 516 604 l 1,26,-1
411 351 m 1,40,-1
 411 565 l 1,41,-1
 233 565 l 1,42,-1
 233 351 l 1,43,-1
 411 351 l 1,40,-1
470 706 m 1,44,-1
 44 706 l 1,45,-1
 44 537 l 1,46,-1
 84 537 l 1,47,-1
 84 152 l 1,48,-1
 44 152 l 1,49,-1
 44 -15 l 1,50,-1
 317 -15 l 1,51,-1
 317 152 l 1,52,-1
 277 152 l 1,53,-1
 277 209 l 1,54,-1
 471 209 l 1,55,-1
 560 294 l 1,56,-1
 560 622 l 1,57,-1
 470 706 l 1,44,-1
277 393 m 1,58,-1
 277 523 l 1,59,-1
 367 523 l 1,60,-1
 367 393 l 1,61,-1
 277 393 l 1,58,-1
EndSplineSet
EndChar

StartChar: q
Encoding: 113 113 42
Width: 599
GlyphClass: 2
Flags: W
LayerCount: 3
Fore
SplineSet
477 -42 m 1,0,-1
 409 29 l 1,1,-1
 177 29 l 1,2,-1
 98 113 l 1,3,-1
 98 582 l 1,4,-1
 175 666 l 1,5,-1
 412 666 l 1,6,-1
 495 586 l 1,7,-1
 495 93 l 1,8,-1
 553 25 l 1,9,-1
 477 -42 l 1,0,-1
537 604 m 1,10,-1
 430 708 l 1,11,-1
 157 708 l 1,12,-1
 56 600 l 1,13,-1
 56 95 l 1,14,-1
 159 -13 l 1,15,-1
 394 -13 l 1,16,-1
 473 -100 l 1,17,-1
 608 24 l 1,18,-1
 537 111 l 1,19,-1
 537 604 l 1,10,-1
239 525 m 1,20,-1
 353 525 l 1,21,-1
 353 170 l 1,22,-1
 239 170 l 1,23,-1
 239 525 l 1,20,-1
197 128 m 1,24,-1
 395 128 l 1,25,-1
 395 567 l 1,26,-1
 197 567 l 1,27,-1
 197 128 l 1,24,-1
545 601 m 1,28,-1
 565 573 l 1,29,-1
 565 89 l 1,30,-1
 619 23 l 1,31,-1
 616 21 l 1,32,-1
 638 -10 l 1,33,-1
 496 -140 l 1,34,-1
 415 -51 l 1,35,-1
 180 -51 l 1,36,-1
 74 60 l 1,37,-1
 61 77 l 1,38,-1
 48 92 l 1,39,-1
 48 603 l 1,40,-1
 154 716 l 1,41,-1
 433 716 l 1,42,-1
 545 607 l 1,43,-1
 545 601 l 1,28,-1
267 178 m 1,44,-1
 345 178 l 1,45,-1
 345 487 l 1,46,-1
 267 487 l 1,47,-1
 267 178 l 1,44,-1
EndSplineSet
EndChar

StartChar: r
Encoding: 114 114 43
Width: 621
GlyphClass: 2
Flags: W
LayerCount: 3
Fore
SplineSet
305 151 m 1,0,-1
 363 151 l 1,1,-1
 363 170 l 1,2,-1
 305 170 l 1,3,-1
 305 151 l 1,0,-1
305 399 m 1,4,-1
 363 399 l 1,5,-1
 363 485 l 1,6,-1
 305 485 l 1,7,-1
 305 399 l 1,4,-1
573 244 m 1,8,-1
 593 216 l 1,9,-1
 593 151 l 1,10,-1
 602 151 l 1,11,-1
 602 143 l 1,12,-1
 622 115 l 1,13,-1
 622 -53 l 1,14,-1
 357 -53 l 1,15,-1
 346 -37 l 1,16,-1
 346 -53 l 1,17,-1
 62 -53 l 1,18,-1
 41 -23 l 1,19,-1
 36 -23 l 1,20,-1
 36 151 l 1,21,-1
 77 151 l 1,22,-1
 77 485 l 1,23,-1
 62 485 l 1,24,-1
 41 515 l 1,25,-1
 36 515 l 1,26,-1
 36 714 l 1,27,-1
 478 714 l 1,28,-1
 573 624 l 1,29,-1
 573 618 l 1,30,-1
 593 590 l 1,31,-1
 593 324 l 1,32,-1
 547 276 l 1,33,-1
 573 250 l 1,34,-1
 573 244 l 1,8,-1
550 101 m 1,35,-1
 550 27 l 1,36,-1
 383 27 l 1,37,-1
 383 101 l 1,38,-1
 415 101 l 1,39,-1
 415 250 l 1,40,-1
 233 250 l 1,41,-1
 233 101 l 1,42,-1
 274 101 l 1,43,-1
 274 27 l 1,44,-1
 88 27 l 1,45,-1
 88 101 l 1,46,-1
 129 101 l 1,47,-1
 129 565 l 1,48,-1
 88 565 l 1,49,-1
 88 664 l 1,50,-1
 456 664 l 1,51,-1
 520 603 l 1,52,-1
 520 377 l 1,53,-1
 442 301 l 1,54,-1
 520 228 l 1,55,-1
 520 101 l 1,56,-1
 550 101 l 1,35,-1
415 349 m 1,57,-1
 415 565 l 1,58,-1
 233 565 l 1,59,-1
 233 349 l 1,60,-1
 415 349 l 1,57,-1
565 246 m 1,61,-1
 511 302 l 1,62,-1
 565 359 l 1,63,-1
 565 621 l 1,64,-1
 475 706 l 1,65,-1
 44 706 l 1,66,-1
 44 523 l 1,67,-1
 85 523 l 1,68,-1
 85 143 l 1,69,-1
 44 143 l 1,70,-1
 44 -15 l 1,71,-1
 318 -15 l 1,72,-1
 318 143 l 1,73,-1
 277 143 l 1,74,-1
 277 208 l 1,75,-1
 371 208 l 1,76,-1
 371 143 l 1,77,-1
 339 143 l 1,78,-1
 339 -15 l 1,79,-1
 594 -15 l 1,80,-1
 594 143 l 1,81,-1
 565 143 l 1,82,-1
 565 246 l 1,61,-1
277 391 m 1,83,-1
 277 523 l 1,84,-1
 371 523 l 1,85,-1
 371 391 l 1,86,-1
 277 391 l 1,83,-1
EndSplineSet
EndChar

StartChar: s
Encoding: 115 115 44
Width: 600
GlyphClass: 2
Flags: W
LayerCount: 3
Fore
SplineSet
139 235 m 1,0,-1
 140 235 l 1,1,-1
 132 246 l 1,2,-1
 139 235 l 1,0,-1
264 199 m 1,3,-1
 264 177 l 1,4,-1
 348 177 l 1,5,-1
 348 216 l 1,6,-1
 252 216 l 1,7,-1
 264 199 l 1,3,-1
264 446 m 1,8,-1
 361 446 l 1,9,-1
 353 458 l 1,10,-1
 348 458 l 1,11,-1
 348 485 l 1,12,-1
 264 485 l 1,13,-1
 264 446 l 1,8,-1
557 333 m 1,14,-1
 577 305 l 1,15,-1
 577 58 l 1,16,-1
 459 -53 l 1,17,-1
 170 -53 l 1,18,-1
 61 51 l 1,19,-1
 46 72 l 1,20,-1
 35 83 l 1,21,-1
 35 235 l 1,22,-1
 133 235 l 1,23,-1
 61 304 l 1,24,-1
 46 325 l 1,25,-1
 35 336 l 1,26,-1
 35 606 l 1,27,-1
 153 714 l 1,28,-1
 444 715 l 1,29,-1
 557 611 l 1,30,-1
 557 605 l 1,31,-1
 577 577 l 1,32,-1
 577 428 l 1,33,-1
 464 428 l 1,34,-1
 557 339 l 1,35,-1
 557 333 l 1,14,-1
505 111 m 1,36,-1
 415 27 l 1,37,-1
 168 27 l 1,38,-1
 87 104 l 1,39,-1
 87 185 l 1,40,-1
 192 185 l 1,41,-1
 192 127 l 1,42,-1
 400 127 l 1,43,-1
 400 296 l 1,44,-1
 151 296 l 1,45,-1
 87 357 l 1,46,-1
 87 585 l 1,47,-1
 175 664 l 1,48,49
 198 664 198 664 230.5 664 c 128,-1,50
 263 664 263 664 298 664.5 c 128,-1,51
 333 665 333 665 366 665 c 128,-1,52
 399 665 399 665 422 665 c 1,53,-1
 505 590 l 1,54,-1
 505 508 l 1,55,-1
 400 508 l 1,56,-1
 400 565 l 1,57,-1
 192 565 l 1,58,-1
 192 396 l 1,59,-1
 423 396 l 1,60,-1
 505 318 l 1,61,-1
 505 111 l 1,36,-1
549 336 m 1,62,-1
 442 438 l 1,63,-1
 236 438 l 1,64,-1
 236 523 l 1,65,-1
 356 523 l 1,66,-1
 356 466 l 1,67,-1
 549 466 l 1,68,-1
 549 608 l 1,69,-1
 441 707 l 1,70,-1
 156 706 l 1,71,-1
 43 603 l 1,72,-1
 43 339 l 1,73,-1
 132 254 l 1,74,-1
 356 254 l 1,75,-1
 356 169 l 1,76,-1
 236 169 l 1,77,-1
 236 227 l 1,78,-1
 43 227 l 1,79,-1
 43 86 l 1,80,-1
 149 -15 l 1,81,-1
 434 -15 l 1,82,-1
 549 93 l 1,83,-1
 549 336 l 1,62,-1
EndSplineSet
EndChar

StartChar: t
Encoding: 116 116 45
Width: 605
GlyphClass: 2
Flags: W
LayerCount: 3
Fore
SplineSet
587 715 m 1,0,-1
 587 707 l 1,1,-1
 607 679 l 1,2,-1
 607 440 l 1,3,-1
 445 440 l 1,4,-1
 423 470 l 1,5,-1
 423 165 l 1,6,-1
 444 165 l 1,7,-1
 444 157 l 1,8,-1
 464 129 l 1,9,-1
 464 -53 l 1,10,-1
 180 -53 l 1,11,-1
 159 -23 l 1,12,-1
 154 -23 l 1,13,-1
 154 165 l 1,14,-1
 195 165 l 1,15,-1
 195 440 l 1,16,-1
 35 440 l 1,17,-1
 14 470 l 1,18,-1
 9 470 l 1,19,-1
 9 715 l 1,20,-1
 587 715 l 1,0,-1
535 665 m 1,21,-1
 535 520 l 1,22,-1
 471 520 l 1,23,-1
 471 565 l 1,24,-1
 351 565 l 1,25,-1
 351 115 l 1,26,-1
 392 115 l 1,27,-1
 392 27 l 1,28,-1
 206 27 l 1,29,-1
 206 115 l 1,30,-1
 247 115 l 1,31,-1
 247 565 l 1,32,-1
 127 565 l 1,33,-1
 127 520 l 1,34,-1
 62 520 l 1,35,-1
 62 665 l 1,36,-1
 535 665 l 1,21,-1
17 707 m 1,37,-1
 17 478 l 1,38,-1
 171 478 l 1,39,-1
 171 532 l 1,40,-1
 203 532 l 1,41,-1
 203 157 l 1,42,-1
 162 157 l 1,43,-1
 162 -15 l 1,44,-1
 436 -15 l 1,45,-1
 436 157 l 1,46,-1
 395 157 l 1,47,-1
 395 532 l 1,48,-1
 427 532 l 1,49,-1
 427 478 l 1,50,-1
 579 478 l 1,51,-1
 579 707 l 1,52,-1
 17 707 l 1,37,-1
EndSplineSet
EndChar

StartChar: u
Encoding: 117 117 46
Width: 623
GlyphClass: 2
Flags: W
LayerCount: 3
Fore
SplineSet
615 715 m 5,0,-1
 615 707 l 5,1,-1
 635 679 l 5,2,-1
 635 504 l 5,3,-1
 595 504 l 5,4,-1
 595 56 l 5,5,-1
 483 -53 l 5,6,-1
 199 -53 l 5,7,-1
 92 56 l 5,8,-1
 78 75 l 5,9,-1
 66 88 l 5,10,-1
 66 504 l 5,11,-1
 52 504 l 5,12,-1
 31 534 l 5,13,-1
 26 534 l 5,14,-1
 26 715 l 5,15,-1
 305 715 l 5,16,-1
 305 707 l 5,17,-1
 325 679 l 5,18,-1
 325 504 l 5,19,-1
 295 504 l 5,20,-1
 295 177 l 5,21,-1
 366 177 l 5,22,-1
 366 504 l 5,23,-1
 361 504 l 5,24,-1
 340 534 l 5,25,-1
 335 534 l 5,26,-1
 335 715 l 5,27,-1
 615 715 l 5,0,-1
563 665 m 5,28,-1
 563 584 l 5,29,-1
 523 584 l 5,30,-1
 523 109 l 5,31,-1
 439 27 l 5,32,-1
 196 27 l 5,33,-1
 118 109 l 5,34,-1
 118 584 l 5,35,-1
 78 584 l 5,36,-1
 78 665 l 5,37,-1
 253 665 l 5,38,-1
 253 584 l 5,39,-1
 223 584 l 5,40,-1
 223 127 l 5,41,-1
 418 127 l 5,42,-1
 418 584 l 5,43,-1
 388 584 l 5,44,-1
 388 665 l 5,45,-1
 563 665 l 5,28,-1
343 707 m 5,46,-1
 343 542 l 5,47,-1
 374 542 l 5,48,-1
 374 169 l 5,49,-1
 267 169 l 5,50,-1
 267 542 l 5,51,-1
 297 542 l 5,52,-1
 297 707 l 5,53,-1
 34 707 l 5,54,-1
 34 542 l 5,55,-1
 74 542 l 5,56,-1
 74 91 l 5,57,-1
 178 -15 l 5,58,-1
 458 -15 l 5,59,-1
 567 91 l 5,60,-1
 567 542 l 5,61,-1
 607 542 l 5,62,-1
 607 707 l 5,63,-1
 343 707 l 5,46,-1
EndSplineSet
EndChar

StartChar: v
Encoding: 118 118 47
Width: 621
GlyphClass: 2
Flags: W
LayerCount: 3
Fore
SplineSet
19 529 m 1,0,-1
 14 529 l 1,1,-1
 14 714 l 1,2,-1
 303 714 l 1,3,-1
 303 706 l 1,4,-1
 323 678 l 1,5,-1
 323 499 l 1,6,-1
 289 499 l 1,7,-1
 327 309 l 1,8,9
 333 336 333 336 339 364.5 c 128,-1,10
 345 393 345 393 350 422 c 0,11,12
 353 436 353 436 355.5 448.5 c 128,-1,13
 358 461 358 461 360 474 c 0,14,15
 361 482 361 482 362 487.5 c 128,-1,16
 363 493 363 493 364 499 c 1,17,-1
 363 499 l 1,18,-1
 342 529 l 1,19,-1
 337 529 l 1,20,-1
 337 714 l 1,21,-1
 626 714 l 1,22,-1
 626 706 l 1,23,-1
 646 678 l 1,24,-1
 646 501 l 1,25,-1
 602 501 l 1,26,-1
 481 -53 l 1,27,-1
 208 -53 l 1,28,-1
 187 -23 l 1,29,-1
 182 -23 l 1,30,-1
 65 499 l 1,31,-1
 40 499 l 1,32,-1
 19 529 l 1,0,-1
295 149 m 1,33,-1
 346 149 l 1,34,-1
 435 579 l 1,35,-1
 389 579 l 1,36,-1
 389 664 l 1,37,-1
 574 664 l 1,38,-1
 574 579 l 1,39,-1
 539 579 l 1,40,-1
 418 27 l 1,41,-1
 225 27 l 1,42,-1
 101 579 l 1,43,-1
 67 579 l 1,44,-1
 67 664 l 1,45,-1
 251 664 l 1,46,-1
 251 579 l 1,47,-1
 205 579 l 1,48,-1
 295 149 l 1,33,-1
295 537 m 1,49,-1
 295 706 l 1,50,-1
 22 706 l 1,51,-1
 22 537 l 1,52,-1
 66 537 l 1,53,-1
 189 -15 l 1,54,-1
 454 -15 l 1,55,-1
 575 539 l 1,56,-1
 618 539 l 1,57,-1
 618 706 l 1,58,-1
 345 706 l 1,59,-1
 345 537 l 1,60,-1
 382 537 l 1,61,62
 375 510 375 510 370 480.5 c 128,-1,63
 365 451 365 451 358 420 c 0,64,65
 350 375 350 375 339.5 327 c 128,-1,66
 329 279 329 279 320 240 c 1,67,-1
 260 537 l 1,68,-1
 295 537 l 1,49,-1
EndSplineSet
EndChar

StartChar: w
Encoding: 119 119 48
Width: 766
GlyphClass: 2
Flags: W
LayerCount: 3
Fore
SplineSet
732 713 m 1,0,-1
 732 705 l 1,1,-1
 752 677 l 1,2,-1
 752 497 l 1,3,-1
 711 497 l 1,4,-1
 711 -54 l 1,5,-1
 519 -54 l 1,6,-1
 498 -24 l 1,7,-1
 494 -24 l 1,8,-1
 407 109 l 1,9,10
 402 102 402 102 397 94.5 c 128,-1,11
 392 87 392 87 386 77 c 2,12,-1
 297 -54 l 1,13,-1
 102 -54 l 1,14,-1
 81 -24 l 1,15,-1
 76 -24 l 1,16,-1
 76 497 l 1,17,-1
 61 497 l 1,18,-1
 40 527 l 1,19,-1
 35 527 l 1,20,-1
 35 713 l 1,21,-1
 325 713 l 1,22,-1
 325 705 l 1,23,-1
 345 677 l 1,24,-1
 345 497 l 1,25,-1
 304 497 l 1,26,-1
 304 404 l 1,27,28
 325 440 325 440 346.5 477 c 128,-1,29
 368 514 368 514 388 550 c 1,30,-1
 404 519 l 1,31,-1
 411 510 l 1,32,-1
 483 375 l 1,33,-1
 483 497 l 1,34,-1
 468 497 l 1,35,-1
 447 527 l 1,36,-1
 442 527 l 1,37,-1
 442 713 l 1,38,-1
 732 713 l 1,0,-1
680 663 m 1,39,-1
 680 577 l 1,40,-1
 639 577 l 1,41,-1
 639 26 l 1,42,-1
 524 26 l 1,43,-1
 390 240 l 1,44,45
 372 215 372 215 318 132.5 c 128,-1,46
 264 50 264 50 246 26 c 1,47,-1
 128 26 l 1,48,-1
 128 577 l 1,49,-1
 87 577 l 1,50,-1
 87 663 l 1,51,-1
 273 663 l 1,52,-1
 273 577 l 1,53,-1
 232 577 l 1,54,-1
 232 171 l 1,55,-1
 387 444 l 1,56,-1
 535 163 l 1,57,-1
 535 577 l 1,58,-1
 494 577 l 1,59,-1
 494 663 l 1,60,-1
 680 663 l 1,39,-1
450 705 m 1,61,-1
 450 535 l 1,62,-1
 491 535 l 1,63,-1
 491 341 l 1,64,-1
 388 534 l 1,65,-1
 276 338 l 1,66,-1
 276 535 l 1,67,-1
 317 535 l 1,68,-1
 317 705 l 1,69,-1
 43 705 l 1,70,-1
 43 535 l 1,71,-1
 84 535 l 1,72,-1
 84 -16 l 1,73,-1
 271 -16 l 1,74,75
 308 37 308 37 339 84 c 128,-1,76
 370 131 370 131 376.5 139.5 c 128,-1,77
 383 148 383 148 388 155 c 1,78,-1
 499 -16 l 1,79,-1
 683 -16 l 1,80,-1
 683 535 l 1,81,-1
 724 535 l 1,82,-1
 724 705 l 1,83,-1
 450 705 l 1,61,-1
EndSplineSet
EndChar

StartChar: x
Encoding: 120 120 49
Width: 615
GlyphClass: 2
Flags: W
LayerCount: 3
Fore
SplineSet
96 491 m 1,0,-1
 54 491 l 1,1,-1
 33 521 l 1,2,-1
 28 521 l 1,3,-1
 28 715 l 1,4,-1
 301 715 l 1,5,-1
 301 707 l 1,6,-1
 315 687 l 1,7,-1
 315 715 l 1,8,-1
 596 715 l 1,9,-1
 596 707 l 1,10,-1
 616 679 l 1,11,-1
 616 491 l 1,12,-1
 575 491 l 1,13,-1
 458 312 l 1,14,-1
 545 171 l 1,15,-1
 545 170 l 1,16,-1
 549 165 l 1,17,-1
 596 165 l 1,18,-1
 596 157 l 1,19,-1
 616 129 l 1,20,-1
 616 -53 l 1,21,-1
 345 -53 l 1,22,-1
 324 -23 l 1,23,-1
 323 -23 l 1,24,-1
 323 -53 l 1,25,-1
 54 -53 l 1,26,-1
 33 -23 l 1,27,-1
 28 -23 l 1,28,-1
 28 165 l 1,29,-1
 74 165 l 1,30,-1
 192 341 l 1,31,-1
 96 491 l 1,0,-1
107 571 m 1,32,-1
 80 571 l 1,33,-1
 80 665 l 1,34,-1
 260 665 l 1,35,-1
 260 571 l 1,36,-1
 211 571 l 1,37,-1
 317 391 l 1,38,-1
 410 571 l 1,39,-1
 362 571 l 1,40,-1
 362 665 l 1,41,-1
 544 665 l 1,42,-1
 544 571 l 1,43,-1
 524 571 l 1,44,-1
 375 343 l 1,45,-1
 521 115 l 1,46,-1
 544 115 l 1,47,-1
 544 27 l 1,48,-1
 361 27 l 1,49,-1
 361 115 l 1,50,-1
 411 115 l 1,51,-1
 313 285 l 1,52,-1
 211 115 l 1,53,-1
 261 115 l 1,54,-1
 261 27 l 1,55,-1
 80 27 l 1,56,-1
 80 115 l 1,57,-1
 101 115 l 1,58,-1
 254 342 l 1,59,-1
 107 571 l 1,32,-1
202 342 m 1,60,-1
 78 157 l 1,61,-1
 36 157 l 1,62,-1
 36 -15 l 1,63,-1
 295 -15 l 1,64,-1
 295 139 l 1,65,-1
 277 139 l 1,66,67
 286 152 286 152 294.5 166 c 128,-1,68
 303 180 303 180 312 193 c 1,69,-1
 348 139 l 1,70,-1
 327 139 l 1,71,-1
 327 -15 l 1,72,-1
 588 -15 l 1,73,-1
 588 157 l 1,74,-1
 546 157 l 1,75,76
 534 174 534 174 490 245 c 128,-1,77
 446 316 446 316 427 342 c 1,78,79
 456 387 456 387 488 435.5 c 128,-1,80
 520 484 520 484 549 529 c 1,81,-1
 588 529 l 1,82,-1
 588 707 l 1,83,-1
 323 707 l 1,84,-1
 323 529 l 1,85,-1
 345 529 l 1,86,87
 339 515 339 515 330.5 497 c 128,-1,88
 322 479 322 479 315 465 c 1,89,-1
 277 529 l 1,90,-1
 293 529 l 1,91,-1
 293 707 l 1,92,-1
 36 707 l 1,93,-1
 36 529 l 1,94,-1
 82 529 l 1,95,-1
 202 342 l 1,60,-1
EndSplineSet
EndChar

StartChar: y
Encoding: 121 121 50
Width: 574
GlyphClass: 2
Flags: W
LayerCount: 3
Fore
SplineSet
583 714 m 1,0,-1
 583 706 l 1,1,-1
 603 678 l 1,2,-1
 603 484 l 1,3,-1
 555 484 l 1,4,5
 516 418 516 418 492.5 377 c 128,-1,6
 469 336 469 336 454.5 311 c 128,-1,7
 440 286 440 286 432.5 272.5 c 128,-1,8
 425 259 425 259 419 247 c 1,9,-1
 419 163 l 1,10,-1
 439 163 l 1,11,-1
 439 155 l 1,12,-1
 459 127 l 1,13,-1
 459 -53 l 1,14,-1
 176 -53 l 1,15,-1
 155 -23 l 1,16,-1
 150 -23 l 1,17,-1
 150 163 l 1,18,-1
 190 163 l 1,19,-1
 190 277 l 1,20,21
 161 327 161 327 141.5 360 c 128,-1,22
 122 393 122 393 109.5 416 c 128,-1,23
 97 439 97 439 88.5 454.5 c 128,-1,24
 80 470 80 470 73 484 c 1,25,-1
 35 484 l 1,26,-1
 14 514 l 1,27,-1
 9 514 l 1,28,-1
 9 714 l 1,29,-1
 289 714 l 1,30,-1
 289 706 l 1,31,-1
 305 683 l 1,32,-1
 305 714 l 1,33,-1
 583 714 l 1,0,-1
531 664 m 1,34,-1
 531 564 l 1,35,-1
 500 564 l 1,36,-1
 347 289 l 1,37,-1
 347 113 l 1,38,-1
 387 113 l 1,39,-1
 387 27 l 1,40,-1
 202 27 l 1,41,-1
 202 113 l 1,42,-1
 242 113 l 1,43,-1
 242 289 l 1,44,45
 204 358 204 358 171 418.5 c 128,-1,46
 138 479 138 479 101 545 c 2,47,-1
 91 564 l 1,48,-1
 62 564 l 1,49,-1
 62 664 l 1,50,-1
 246 664 l 1,51,-1
 246 564 l 1,52,-1
 193 564 l 1,53,-1
 295 352 l 1,54,-1
 401 564 l 1,55,-1
 345 564 l 1,56,-1
 345 664 l 1,57,-1
 531 664 l 1,34,-1
313 706 m 1,58,-1
 313 522 l 1,59,-1
 336 522 l 1,60,61
 331 511 331 511 296 462 c 1,62,63
 268 508 268 508 258 522 c 1,64,-1
 281 522 l 1,65,-1
 281 706 l 1,66,-1
 17 706 l 1,67,-1
 17 522 l 1,68,-1
 65 522 l 1,69,70
 87 475 87 475 137.5 385.5 c 128,-1,71
 188 296 188 296 198 279 c 1,72,-1
 198 155 l 1,73,-1
 158 155 l 1,74,-1
 158 -15 l 1,75,-1
 431 -15 l 1,76,-1
 431 155 l 1,77,-1
 391 155 l 1,78,-1
 391 280 l 1,79,80
 513 491 513 491 529 522 c 1,81,-1
 575 522 l 1,82,-1
 575 706 l 1,83,-1
 313 706 l 1,58,-1
EndSplineSet
EndChar

StartChar: z
Encoding: 122 122 51
Width: 613
GlyphClass: 2
Flags: W
LayerCount: 3
Fore
SplineSet
361 177 m 1,0,-1
 361 203 l 1,1,-1
 340 177 l 1,2,-1
 361 177 l 1,0,-1
264 448 m 1,3,-1
 293 485 l 1,4,-1
 264 485 l 1,5,-1
 264 448 l 1,3,-1
254 436 m 1,6,-1
 61 436 l 1,7,-1
 40 466 l 1,8,-1
 35 466 l 1,9,-1
 35 715 l 1,10,-1
 570 715 l 1,11,-1
 570 707 l 1,12,-1
 590 679 l 1,13,-1
 590 499 l 1,14,-1
 383 232 l 1,15,-1
 570 232 l 1,16,-1
 570 224 l 1,17,-1
 590 196 l 1,18,-1
 590 -53 l 1,19,-1
 61 -53 l 1,20,-1
 40 -23 l 1,21,-1
 35 -23 l 1,22,-1
 35 161 l 1,23,-1
 254 436 l 1,6,-1
420 565 m 1,24,-1
 192 565 l 1,25,-1
 192 516 l 1,26,-1
 87 516 l 1,27,-1
 87 665 l 1,28,-1
 518 665 l 1,29,-1
 518 547 l 1,30,-1
 194 127 l 1,31,-1
 413 127 l 1,32,-1
 413 182 l 1,33,-1
 518 182 l 1,34,-1
 518 27 l 1,35,-1
 87 27 l 1,36,-1
 87 145 l 1,37,-1
 420 565 l 1,24,-1
43 158 m 1,38,-1
 43 -15 l 1,39,-1
 562 -15 l 1,40,-1
 562 224 l 1,41,-1
 369 224 l 1,42,-1
 369 169 l 1,43,-1
 280 169 l 1,44,-1
 562 534 l 1,45,-1
 562 707 l 1,46,-1
 43 707 l 1,47,-1
 43 474 l 1,48,-1
 236 474 l 1,49,-1
 236 523 l 1,50,-1
 333 523 l 1,51,-1
 43 158 l 1,38,-1
EndSplineSet
EndChar

StartChar: D
Encoding: 68 68 52
Width: 637
GlyphClass: 2
Flags: W
LayerCount: 3
Fore
SplineSet
305 176 m 5,0,-1
 384 176 l 5,1,-1
 384 485 l 5,2,-1
 305 485 l 5,3,-1
 305 176 l 5,0,-1
594 578 m 5,4,-1
 614 550 l 5,5,-1
 614 72 l 5,6,-1
 486 -53 l 5,7,-1
 62 -53 l 5,8,-1
 41 -23 l 5,9,-1
 36 -23 l 5,10,-1
 36 176 l 5,11,-1
 76 176 l 5,12,-1
 76 485 l 5,13,-1
 62 485 l 5,14,-1
 41 515 l 5,15,-1
 36 515 l 5,16,-1
 36 714 l 5,17,-1
 461 714 l 5,18,-1
 594 584 l 5,19,-1
 594 578 l 5,4,-1
541 125 m 5,20,-1
 442 27 l 5,21,-1
 88 27 l 5,22,-1
 88 126 l 5,23,-1
 128 126 l 5,24,-1
 128 565 l 5,25,-1
 88 565 l 5,26,-1
 88 664 l 5,27,-1
 440 664 l 5,28,-1
 541 563 l 5,29,-1
 541 125 l 5,20,-1
436 126 m 5,30,-1
 436 565 l 5,31,-1
 233 565 l 5,32,-1
 233 126 l 5,33,-1
 436 126 l 5,30,-1
586 581 m 5,34,-1
 458 706 l 5,35,-1
 44 706 l 5,36,-1
 44 523 l 5,37,-1
 84 523 l 5,38,-1
 84 168 l 5,39,-1
 44 168 l 5,40,-1
 44 -15 l 5,41,-1
 461 -15 l 5,42,-1
 586 107 l 5,43,-1
 586 581 l 5,34,-1
277 168 m 5,44,-1
 277 523 l 5,45,-1
 392 523 l 5,46,-1
 392 168 l 5,47,-1
 277 168 l 5,44,-1
EndSplineSet
EndChar

StartChar: exclam
Encoding: 33 33 53
Width: 329
GlyphClass: 2
Flags: W
LayerCount: 3
Fore
SplineSet
264 714 m 1,0,-1
 264 706 l 1,1,-1
 284 678 l 1,2,-1
 284 157 l 1,3,-1
 273 157 l 1,4,-1
 284 141 l 1,5,-1
 284 -53 l 1,6,-1
 81 -53 l 1,7,-1
 60 -23 l 1,8,-1
 55 -23 l 1,9,-1
 55 177 l 1,10,-1
 67 177 l 1,11,-1
 60 187 l 1,12,-1
 55 187 l 1,13,-1
 55 714 l 1,14,-1
 264 714 l 1,0,-1
212 127 m 1,15,-1
 212 27 l 1,16,-1
 107 27 l 1,17,-1
 107 127 l 1,18,-1
 212 127 l 1,15,-1
212 664 m 1,19,-1
 212 230 l 1,20,-1
 107 230 l 1,21,-1
 107 664 l 1,22,-1
 212 664 l 1,19,-1
63 706 m 1,23,-1
 63 195 l 1,24,-1
 256 195 l 1,25,-1
 256 706 l 1,26,-1
 63 706 l 1,23,-1
63 169 m 1,27,-1
 63 -15 l 1,28,-1
 256 -15 l 1,29,-1
 256 169 l 1,30,-1
 63 169 l 1,27,-1
EndSplineSet
EndChar

StartChar: quotesingle
Encoding: 39 39 54
Width: 242
GlyphClass: 2
Flags: W
LayerCount: 3
Fore
SplineSet
237 713 m 1,0,-1
 237 705 l 1,1,-1
 257 677 l 1,2,-1
 257 496 l 1,3,-1
 99 356 l 1,4,-1
 77 387 l 1,5,-1
 73 383 l 1,6,-1
 73 484 l 1,7,-1
 53 484 l 1,8,-1
 32 514 l 1,9,-1
 27 514 l 1,10,-1
 27 713 l 1,11,-1
 237 713 l 1,0,-1
185 663 m 1,12,-1
 185 546 l 1,13,-1
 125 494 l 1,14,-1
 125 564 l 1,15,-1
 80 564 l 1,16,-1
 80 663 l 1,17,-1
 185 663 l 1,12,-1
35 705 m 1,18,-1
 35 522 l 1,19,-1
 81 522 l 1,20,-1
 81 400 l 1,21,-1
 229 531 l 1,22,-1
 229 705 l 1,23,-1
 35 705 l 1,18,-1
EndSplineSet
EndChar

StartChar: comma
Encoding: 44 44 55
Width: 238
GlyphClass: 2
Flags: W
LayerCount: 3
Fore
SplineSet
210 176 m 1,0,-1
 210 168 l 1,1,-1
 230 140 l 1,2,-1
 230 -41 l 1,3,-1
 76 -178 l 1,4,-1
 54 -147 l 1,5,-1
 50 -151 l 1,6,-1
 47 -53 l 1,7,-1
 27 -53 l 1,8,-1
 6 -23 l 1,9,-1
 1 -23 l 1,10,-1
 1 176 l 1,11,-1
 210 176 l 1,0,-1
158 126 m 1,12,-1
 158 9 l 1,13,-1
 98 -48 l 1,14,-1
 98 27 l 1,15,-1
 53 27 l 1,16,-1
 53 126 l 1,17,-1
 158 126 l 1,12,-1
9 168 m 1,18,-1
 9 -15 l 1,19,-1
 54 -15 l 1,20,-1
 58 -134 l 1,21,-1
 202 -6 l 1,22,-1
 202 168 l 1,23,-1
 9 168 l 1,18,-1
EndSplineSet
EndChar

StartChar: period
Encoding: 46 46 56
Width: 237
GlyphClass: 2
Flags: W
LayerCount: 3
Fore
SplineSet
209 177 m 1,0,-1
 209 169 l 1,1,-1
 229 141 l 1,2,-1
 229 -53 l 1,3,-1
 27 -53 l 1,4,-1
 6 -23 l 1,5,-1
 1 -23 l 1,6,-1
 1 177 l 1,7,-1
 209 177 l 1,0,-1
157 127 m 1,8,-1
 157 27 l 1,9,-1
 53 27 l 1,10,-1
 53 127 l 1,11,-1
 157 127 l 1,8,-1
9 169 m 1,12,-1
 9 -15 l 1,13,-1
 201 -15 l 1,14,-1
 201 169 l 1,15,-1
 9 169 l 1,12,-1
EndSplineSet
EndChar

StartChar: zero
Encoding: 48 48 57
Width: 633
GlyphClass: 2
Flags: W
LayerCount: 3
Fore
SplineSet
285 176 m 1,0,-1
 369 176 l 1,1,-1
 369 485 l 1,2,-1
 285 485 l 1,3,-1
 285 176 l 1,0,-1
578 618 m 1,4,-1
 598 590 l 1,5,-1
 598 35 l 1,6,-1
 506 -53 l 1,7,-1
 174 -53 l 1,8,-1
 83 35 l 1,9,-1
 68 56 l 1,10,-1
 57 67 l 1,11,-1
 57 624 l 1,12,-1
 150 714 l 1,13,-1
 484 714 l 1,14,-1
 578 624 l 1,15,-1
 578 618 l 1,4,-1
526 88 m 1,16,-1
 462 27 l 1,17,-1
 172 27 l 1,18,-1
 109 88 l 1,19,-1
 109 603 l 1,20,-1
 172 664 l 1,21,-1
 462 664 l 1,22,-1
 526 603 l 1,23,-1
 526 88 l 1,16,-1
421 126 m 1,24,-1
 421 565 l 1,25,-1
 213 565 l 1,26,-1
 213 126 l 1,27,-1
 421 126 l 1,24,-1
570 621 m 1,28,-1
 481 706 l 1,29,-1
 153 706 l 1,30,-1
 65 621 l 1,31,-1
 65 70 l 1,32,-1
 153 -15 l 1,33,-1
 481 -15 l 1,34,-1
 570 70 l 1,35,-1
 570 621 l 1,28,-1
257 168 m 1,36,-1
 257 523 l 1,37,-1
 377 523 l 1,38,-1
 377 168 l 1,39,-1
 257 168 l 1,36,-1
EndSplineSet
EndChar

StartChar: one
Encoding: 49 49 58
Width: 438
GlyphClass: 2
Flags: W
LayerCount: 3
Fore
SplineSet
57 515 m 1,0,-1
 52 515 l 1,1,-1
 52 715 l 1,2,-1
 342 715 l 1,3,-1
 342 707 l 1,4,-1
 362 679 l 1,5,-1
 362 177 l 1,6,-1
 406 177 l 1,7,-1
 406 169 l 1,8,-1
 426 141 l 1,9,-1
 426 -53 l 1,10,-1
 98 -53 l 1,11,-1
 77 -23 l 1,12,-1
 72 -23 l 1,13,-1
 72 177 l 1,14,-1
 133 177 l 1,15,-1
 133 485 l 1,16,-1
 78 485 l 1,17,-1
 57 515 l 1,0,-1
354 127 m 1,18,-1
 354 27 l 1,19,-1
 124 27 l 1,20,-1
 124 127 l 1,21,-1
 185 127 l 1,22,-1
 185 565 l 1,23,-1
 104 565 l 1,24,-1
 104 665 l 1,25,-1
 290 665 l 1,26,-1
 290 127 l 1,27,-1
 354 127 l 1,18,-1
334 169 m 1,28,-1
 334 707 l 1,29,-1
 60 707 l 1,30,-1
 60 523 l 1,31,-1
 141 523 l 1,32,-1
 141 169 l 1,33,-1
 80 169 l 1,34,-1
 80 -15 l 1,35,-1
 398 -15 l 1,36,-1
 398 169 l 1,37,-1
 334 169 l 1,28,-1
EndSplineSet
EndChar

StartChar: two
Encoding: 50 50 59
Width: 638
GlyphClass: 2
Flags: W
LayerCount: 3
Fore
SplineSet
288 446 m 1,0,-1
 378 446 l 1,1,-1
 378 485 l 1,2,-1
 288 485 l 1,3,-1
 288 446 l 1,0,-1
288 177 m 1,4,-1
 378 177 l 1,5,-1
 378 216 l 1,6,-1
 288 216 l 1,7,-1
 288 177 l 1,4,-1
586 213 m 1,8,-1
 606 185 l 1,9,-1
 606 -53 l 1,10,-1
 85 -53 l 1,11,-1
 64 -23 l 1,12,-1
 59 -23 l 1,13,-1
 59 356 l 1,14,-1
 149 442 l 1,15,-1
 85 442 l 1,16,-1
 64 472 l 1,17,-1
 59 472 l 1,18,-1
 59 625 l 1,19,-1
 153 714 l 1,20,-1
 492 714 l 1,21,-1
 586 625 l 1,22,-1
 586 619 l 1,23,-1
 606 591 l 1,24,-1
 606 304 l 1,25,-1
 519 221 l 1,26,-1
 586 221 l 1,27,-1
 586 213 l 1,8,-1
534 27 m 1,28,-1
 111 27 l 1,29,-1
 111 335 l 1,30,-1
 175 396 l 1,31,-1
 430 396 l 1,32,-1
 430 565 l 1,33,-1
 216 565 l 1,34,-1
 216 522 l 1,35,-1
 111 522 l 1,36,-1
 111 604 l 1,37,-1
 175 664 l 1,38,-1
 470 664 l 1,39,-1
 534 604 l 1,40,-1
 534 357 l 1,41,-1
 470 296 l 1,42,-1
 216 296 l 1,43,-1
 216 127 l 1,44,-1
 430 127 l 1,45,-1
 430 176 l 1,46,-1
 534 176 l 1,47,-1
 534 27 l 1,28,-1
578 213 m 1,48,-1
 386 213 l 1,49,-1
 386 169 l 1,50,-1
 260 169 l 1,51,-1
 260 254 l 1,52,-1
 489 254 l 1,53,-1
 578 339 l 1,54,-1
 578 622 l 1,55,-1
 489 706 l 1,56,-1
 156 706 l 1,57,-1
 67 622 l 1,58,-1
 67 480 l 1,59,-1
 260 480 l 1,60,-1
 260 523 l 1,61,-1
 386 523 l 1,62,-1
 386 438 l 1,63,-1
 156 438 l 1,64,-1
 67 353 l 1,65,-1
 67 -15 l 1,66,-1
 578 -15 l 1,67,-1
 578 213 l 1,48,-1
EndSplineSet
EndChar

StartChar: three
Encoding: 51 51 60
Width: 623
GlyphClass: 2
Flags: W
LayerCount: 3
Fore
SplineSet
280 446 m 1,0,-1
 361 446 l 1,1,-1
 361 485 l 1,2,-1
 280 485 l 1,3,-1
 280 446 l 1,0,-1
280 177 m 1,4,-1
 361 177 l 1,5,-1
 361 216 l 1,6,-1
 264 216 l 1,7,-1
 280 193 l 1,8,-1
 280 177 l 1,4,-1
475 715 m 1,9,-1
 569 625 l 1,10,-1
 569 619 l 1,11,-1
 589 591 l 1,12,-1
 589 365 l 1,13,-1
 539 321 l 1,14,15
 547 314 547 314 554 307 c 128,-1,16
 561 300 561 300 569 294 c 1,17,-1
 569 288 l 1,18,-1
 589 260 l 1,19,-1
 589 35 l 1,20,-1
 497 -53 l 1,21,-1
 169 -53 l 1,22,-1
 77 35 l 1,23,-1
 62 56 l 1,24,-1
 51 67 l 1,25,-1
 51 229 l 1,26,-1
 215 229 l 1,27,-1
 203 246 l 1,28,-1
 198 246 l 1,29,-1
 198 430 l 1,30,-1
 77 430 l 1,31,-1
 56 460 l 1,32,-1
 51 460 l 1,33,-1
 51 625 l 1,34,-1
 145 715 l 1,35,-1
 475 715 l 1,9,-1
454 665 m 1,36,-1
 517 604 l 1,37,-1
 517 418 l 1,38,-1
 428 346 l 1,39,-1
 517 273 l 1,40,-1
 517 88 l 1,41,-1
 454 27 l 1,42,-1
 167 27 l 1,43,-1
 103 88 l 1,44,-1
 103 179 l 1,45,-1
 208 179 l 1,46,-1
 208 127 l 1,47,-1
 413 127 l 1,48,-1
 413 296 l 1,49,-1
 250 296 l 1,50,-1
 250 396 l 1,51,-1
 413 396 l 1,52,-1
 413 565 l 1,53,-1
 208 565 l 1,54,-1
 208 510 l 1,55,-1
 103 510 l 1,56,-1
 103 604 l 1,57,-1
 167 665 l 1,58,-1
 454 665 l 1,36,-1
148 707 m 1,59,-1
 59 622 l 1,60,-1
 59 468 l 1,61,-1
 252 468 l 1,62,-1
 252 523 l 1,63,-1
 369 523 l 1,64,-1
 369 438 l 1,65,-1
 206 438 l 1,66,-1
 206 254 l 1,67,-1
 369 254 l 1,68,-1
 369 169 l 1,69,-1
 252 169 l 1,70,-1
 252 221 l 1,71,-1
 59 221 l 1,72,-1
 59 70 l 1,73,-1
 148 -15 l 1,74,-1
 472 -15 l 1,75,-1
 561 70 l 1,76,-1
 561 291 l 1,77,-1
 501 346 l 1,78,-1
 561 400 l 1,79,-1
 561 622 l 1,80,-1
 472 707 l 1,81,-1
 148 707 l 1,59,-1
EndSplineSet
EndChar

StartChar: four
Encoding: 52 52 61
Width: 577
GlyphClass: 2
Flags: W
LayerCount: 3
Fore
SplineSet
507 369 m 1,0,-1
 528 369 l 1,1,-1
 528 361 l 1,2,-1
 548 333 l 1,3,-1
 548 139 l 1,4,-1
 530 139 l 1,5,-1
 548 113 l 1,6,-1
 548 -53 l 1,7,-1
 263 -53 l 1,8,-1
 242 -23 l 1,9,-1
 237 -23 l 1,10,-1
 237 139 l 1,11,-1
 57 139 l 1,12,-1
 36 169 l 1,13,-1
 31 169 l 1,14,-1
 31 369 l 1,15,-1
 97 460 l 2,16,17
 135 514 135 514 163 553 c 128,-1,18
 191 592 191 592 213 620 c 2,19,-1
 238 654 l 1,20,-1
 248 667 l 1,21,-1
 280 714 l 1,22,-1
 487 714 l 1,23,-1
 487 706 l 1,24,-1
 507 678 l 1,25,-1
 507 369 l 1,0,-1
475 99 m 1,26,-1
 475 27 l 1,27,-1
 290 27 l 1,28,-1
 290 99 l 1,29,-1
 331 99 l 1,30,-1
 331 219 l 1,31,-1
 83 219 l 1,32,-1
 83 354 l 1,33,-1
 307 664 l 1,34,-1
 434 664 l 1,35,-1
 434 319 l 1,36,-1
 475 319 l 1,37,-1
 475 219 l 1,38,-1
 434 219 l 1,39,-1
 434 99 l 1,40,-1
 475 99 l 1,26,-1
331 319 m 1,41,-1
 331 543 l 1,42,-1
 186 319 l 1,43,-1
 331 319 l 1,41,-1
479 141 m 1,44,-1
 479 177 l 1,45,-1
 520 177 l 1,46,-1
 520 361 l 1,47,-1
 479 361 l 1,48,-1
 479 706 l 1,49,-1
 285 706 l 1,50,51
 273 687 273 687 256 665 c 128,-1,52
 239 643 239 643 219 615 c 0,53,54
 190 577 190 577 148 518 c 128,-1,55
 106 459 106 459 39 366 c 1,56,-1
 39 177 l 1,57,-1
 286 177 l 1,58,-1
 286 141 l 1,59,-1
 245 141 l 1,60,-1
 245 -15 l 1,61,-1
 520 -15 l 1,62,-1
 520 141 l 1,63,-1
 479 141 l 1,44,-1
264 361 m 1,64,-1
 286 393 l 1,65,-1
 286 361 l 1,66,-1
 264 361 l 1,64,-1
EndSplineSet
EndChar

StartChar: five
Encoding: 53 53 62
Width: 639
GlyphClass: 2
Flags: W
LayerCount: 3
Fore
SplineSet
293 177 m 1,0,-1
 378 177 l 1,1,-1
 378 216 l 1,2,-1
 278 216 l 1,3,-1
 293 195 l 1,4,-1
 293 177 l 1,0,-1
293 446 m 1,5,-1
 395 446 l 1,6,-1
 383 464 l 1,7,-1
 378 464 l 1,8,-1
 378 485 l 1,9,-1
 293 485 l 1,10,-1
 293 446 l 1,5,-1
586 350 m 1,11,-1
 606 322 l 1,12,-1
 606 35 l 1,13,-1
 515 -53 l 1,14,-1
 182 -53 l 1,15,-1
 90 35 l 1,16,-1
 75 56 l 1,17,-1
 64 67 l 1,18,-1
 64 231 l 1,19,-1
 79 231 l 1,20,-1
 69 246 l 1,21,-1
 64 246 l 1,22,-1
 64 715 l 1,23,-1
 586 715 l 1,24,-1
 586 707 l 1,25,-1
 606 679 l 1,26,-1
 606 434 l 1,27,-1
 505 434 l 1,28,-1
 586 356 l 1,29,-1
 586 350 l 1,11,-1
534 88 m 1,30,-1
 471 27 l 1,31,-1
 180 27 l 1,32,-1
 116 88 l 1,33,-1
 116 181 l 1,34,-1
 221 181 l 1,35,-1
 221 127 l 1,36,-1
 430 127 l 1,37,-1
 430 296 l 1,38,-1
 116 296 l 1,39,-1
 116 665 l 1,40,-1
 534 665 l 1,41,-1
 534 514 l 1,42,-1
 430 514 l 1,43,-1
 430 565 l 1,44,-1
 221 565 l 1,45,-1
 221 396 l 1,46,-1
 471 396 l 1,47,-1
 534 335 l 1,48,-1
 534 88 l 1,30,-1
578 353 m 1,49,-1
 490 438 l 1,50,-1
 265 438 l 1,51,-1
 265 523 l 1,52,-1
 386 523 l 1,53,-1
 386 472 l 1,54,-1
 578 472 l 1,55,-1
 578 707 l 1,56,-1
 72 707 l 1,57,-1
 72 254 l 1,58,-1
 386 254 l 1,59,-1
 386 169 l 1,60,-1
 265 169 l 1,61,-1
 265 223 l 1,62,-1
 72 223 l 1,63,-1
 72 70 l 1,64,-1
 161 -15 l 1,65,-1
 490 -15 l 1,66,-1
 578 70 l 1,67,-1
 578 353 l 1,49,-1
EndSplineSet
EndChar

StartChar: six
Encoding: 54 54 63
Width: 636
GlyphClass: 2
Flags: W
LayerCount: 3
Fore
SplineSet
286 177 m 1,0,-1
 375 177 l 1,1,-1
 375 216 l 1,2,-1
 286 216 l 1,3,-1
 286 177 l 1,0,-1
286 446 m 1,4,-1
 386 446 l 1,5,-1
 380 455 l 1,6,-1
 375 455 l 1,7,-1
 375 485 l 1,8,-1
 286 485 l 1,9,-1
 286 446 l 1,4,-1
584 350 m 1,10,-1
 604 322 l 1,11,-1
 604 35 l 1,12,-1
 512 -53 l 1,13,-1
 175 -53 l 1,14,-1
 83 35 l 1,15,-1
 68 56 l 1,16,-1
 57 67 l 1,17,-1
 57 625 l 1,18,-1
 151 715 l 1,19,-1
 490 715 l 1,20,-1
 584 625 l 1,21,-1
 584 619 l 1,22,-1
 604 591 l 1,23,-1
 604 425 l 1,24,-1
 512 425 l 1,25,-1
 584 356 l 1,26,-1
 584 350 l 1,10,-1
214 296 m 1,27,-1
 214 127 l 1,28,-1
 427 127 l 1,29,-1
 427 296 l 1,30,-1
 214 296 l 1,27,-1
532 88 m 1,31,-1
 468 27 l 1,32,-1
 173 27 l 1,33,-1
 109 88 l 1,34,-1
 109 604 l 1,35,-1
 173 665 l 1,36,-1
 468 665 l 1,37,-1
 532 604 l 1,38,-1
 532 505 l 1,39,-1
 427 505 l 1,40,-1
 427 565 l 1,41,-1
 214 565 l 1,42,-1
 214 396 l 1,43,-1
 468 396 l 1,44,-1
 532 335 l 1,45,-1
 532 88 l 1,31,-1
576 353 m 1,46,-1
 487 438 l 1,47,-1
 258 438 l 1,48,-1
 258 523 l 1,49,-1
 383 523 l 1,50,-1
 383 463 l 1,51,-1
 576 463 l 1,52,-1
 576 622 l 1,53,-1
 487 707 l 1,54,-1
 154 707 l 1,55,-1
 65 622 l 1,56,-1
 65 70 l 1,57,-1
 154 -15 l 1,58,-1
 487 -15 l 1,59,-1
 576 70 l 1,60,-1
 576 353 l 1,46,-1
383 254 m 1,61,-1
 383 169 l 1,62,-1
 258 169 l 1,63,-1
 258 254 l 1,64,-1
 383 254 l 1,61,-1
EndSplineSet
EndChar

StartChar: seven
Encoding: 55 55 64
Width: 555
GlyphClass: 2
Flags: W
LayerCount: 3
Fore
SplineSet
257 422 m 1,0,1
 262 438 262 438 266.5 453.5 c 128,-1,2
 271 469 271 469 276 485 c 1,3,-1
 257 485 l 1,4,-1
 257 422 l 1,0,1
526 714 m 1,5,-1
 526 706 l 1,6,-1
 546 678 l 1,7,-1
 546 511 l 1,8,-1
 427 160 l 1,9,-1
 427 155 l 1,10,-1
 447 127 l 1,11,-1
 447 -53 l 1,12,-1
 152 -53 l 1,13,-1
 131 -23 l 1,14,-1
 126 -23 l 1,15,-1
 126 163 l 1,16,-1
 175 163 l 1,17,18
 177 172 177 172 180.5 180.5 c 128,-1,19
 184 189 184 189 186 198 c 2,20,-1
 198 234 l 1,21,-1
 203 251 l 2,22,23
 210 274 210 274 217 297 c 128,-1,24
 224 320 224 320 232 341 c 2,25,-1
 243 377 l 1,26,-1
 255 417 l 1,27,-1
 55 417 l 1,28,-1
 34 447 l 1,29,-1
 29 447 l 1,30,-1
 29 714 l 1,31,-1
 526 714 l 1,5,-1
474 664 m 1,32,-1
 474 539 l 1,33,-1
 459 499 l 2,34,35
 442 454 442 454 424 405 c 128,-1,36
 406 356 406 356 388.5 306 c 128,-1,37
 371 256 371 256 356 207 c 128,-1,38
 341 158 341 158 330 113 c 1,39,-1
 375 113 l 1,40,-1
 375 27 l 1,41,-1
 178 27 l 1,42,-1
 178 113 l 1,43,-1
 214 113 l 1,44,-1
 362 565 l 1,45,-1
 185 565 l 1,46,-1
 185 497 l 1,47,-1
 81 497 l 1,48,-1
 81 664 l 1,49,-1
 474 664 l 1,32,-1
37 706 m 1,50,-1
 37 455 l 1,51,-1
 229 455 l 1,52,-1
 229 523 l 1,53,-1
 300 523 l 1,54,55
 284 478 284 478 269 431.5 c 128,-1,56
 254 385 254 385 240 339 c 0,57,58
 225 294 225 294 210.5 246.5 c 128,-1,59
 196 199 196 199 182 155 c 1,60,-1
 134 155 l 1,61,-1
 134 -15 l 1,62,-1
 419 -15 l 1,63,-1
 419 155 l 1,64,-1
 386 155 l 1,65,-1
 518 546 l 1,66,-1
 518 706 l 1,67,-1
 37 706 l 1,50,-1
EndSplineSet
EndChar

StartChar: eight
Encoding: 56 56 65
Width: 625
GlyphClass: 2
Flags: W
LayerCount: 3
Fore
SplineSet
286 446 m 1,0,-1
 363 446 l 1,1,-1
 363 485 l 1,2,-1
 286 485 l 1,3,-1
 286 446 l 1,0,-1
286 177 m 1,4,-1
 363 177 l 1,5,-1
 363 216 l 1,6,-1
 286 216 l 1,7,-1
 286 177 l 1,4,-1
571 284 m 1,8,-1
 591 256 l 1,9,-1
 591 35 l 1,10,-1
 499 -53 l 1,11,-1
 175 -53 l 1,12,-1
 83 35 l 1,13,-1
 68 56 l 1,14,-1
 57 67 l 1,15,-1
 57 292 l 1,16,-1
 110 344 l 1,17,18
 102 351 102 351 95.5 357 c 128,-1,19
 89 363 89 363 83 371 c 2,20,-1
 70 389 l 1,21,-1
 57 403 l 1,22,-1
 57 625 l 1,23,-1
 151 714 l 1,24,-1
 477 714 l 1,25,-1
 571 625 l 1,26,-1
 571 619 l 1,27,-1
 591 591 l 1,28,-1
 591 374 l 1,29,-1
 534 322 l 1,30,-1
 571 290 l 1,31,-1
 571 284 l 1,8,-1
519 88 m 1,32,-1
 455 27 l 1,33,-1
 173 27 l 1,34,-1
 109 88 l 1,35,-1
 109 270 l 1,36,-1
 184 346 l 1,37,38
 167 365 167 365 147 385 c 128,-1,39
 127 405 127 405 109 424 c 1,40,-1
 109 604 l 1,41,-1
 173 664 l 1,42,-1
 455 664 l 1,43,-1
 519 604 l 1,44,-1
 519 426 l 1,45,-1
 435 347 l 1,46,-1
 519 269 l 1,47,-1
 519 88 l 1,32,-1
415 127 m 1,48,-1
 415 296 l 1,49,-1
 214 296 l 1,50,-1
 214 127 l 1,51,-1
 415 127 l 1,48,-1
415 396 m 1,52,-1
 415 565 l 1,53,-1
 214 565 l 1,54,-1
 214 396 l 1,55,-1
 415 396 l 1,52,-1
563 287 m 1,56,-1
 495 347 l 1,57,-1
 563 409 l 1,58,-1
 563 622 l 1,59,-1
 474 706 l 1,60,-1
 154 706 l 1,61,-1
 65 622 l 1,62,-1
 65 406 l 1,63,64
 79 392 79 392 94.5 376 c 128,-1,65
 110 360 110 360 124 346 c 1,66,-1
 65 288 l 1,67,-1
 65 70 l 1,68,-1
 154 -15 l 1,69,-1
 474 -15 l 1,70,-1
 563 70 l 1,71,-1
 563 287 l 1,56,-1
258 169 m 1,72,-1
 258 254 l 1,73,-1
 371 254 l 1,74,-1
 371 169 l 1,75,-1
 258 169 l 1,72,-1
258 438 m 1,76,-1
 258 523 l 1,77,-1
 371 523 l 1,78,-1
 371 438 l 1,79,-1
 258 438 l 1,76,-1
EndSplineSet
EndChar

StartChar: nine
Encoding: 57 57 66
Width: 639
GlyphClass: 2
Flags: W
LayerCount: 3
Fore
SplineSet
286 446 m 1,0,-1
 375 446 l 1,1,-1
 375 485 l 1,2,-1
 286 485 l 1,3,-1
 286 446 l 1,0,-1
286 177 m 1,4,-1
 375 177 l 1,5,-1
 375 216 l 1,6,-1
 267 216 l 1,7,-1
 286 189 l 1,8,-1
 286 177 l 1,4,-1
57 625 m 1,9,-1
 151 715 l 1,10,-1
 490 715 l 1,11,-1
 584 625 l 1,12,-1
 584 619 l 1,13,-1
 604 591 l 1,14,-1
 604 35 l 1,15,-1
 512 -53 l 1,16,-1
 175 -53 l 1,17,-1
 83 35 l 1,18,-1
 68 56 l 1,19,-1
 57 67 l 1,20,-1
 57 225 l 1,21,-1
 165 225 l 1,22,-1
 83 304 l 1,23,-1
 68 325 l 1,24,-1
 57 336 l 1,25,-1
 57 625 l 1,9,-1
427 396 m 1,26,-1
 427 565 l 1,27,-1
 214 565 l 1,28,-1
 214 396 l 1,29,-1
 427 396 l 1,26,-1
109 604 m 1,30,-1
 173 665 l 1,31,-1
 468 665 l 1,32,-1
 532 604 l 1,33,-1
 532 88 l 1,34,-1
 468 27 l 1,35,-1
 173 27 l 1,36,-1
 109 88 l 1,37,-1
 109 175 l 1,38,-1
 214 175 l 1,39,-1
 214 127 l 1,40,-1
 427 127 l 1,41,-1
 427 296 l 1,42,-1
 173 296 l 1,43,-1
 109 357 l 1,44,-1
 109 604 l 1,30,-1
65 339 m 1,45,-1
 154 254 l 1,46,-1
 383 254 l 1,47,-1
 383 169 l 1,48,-1
 258 169 l 1,49,-1
 258 217 l 1,50,-1
 65 217 l 1,51,-1
 65 70 l 1,52,-1
 154 -15 l 1,53,-1
 487 -15 l 1,54,-1
 576 70 l 1,55,-1
 576 622 l 1,56,-1
 487 707 l 1,57,-1
 154 707 l 1,58,-1
 65 622 l 1,59,-1
 65 339 l 1,45,-1
258 438 m 1,60,-1
 258 523 l 1,61,-1
 383 523 l 1,62,-1
 383 438 l 1,63,-1
 258 438 l 1,60,-1
EndSplineSet
EndChar

StartChar: question
Encoding: 63 63 67
Width: 586
GlyphClass: 2
Flags: W
LayerCount: 3
Fore
SplineSet
251 431 m 1,0,-1
 267 446 l 1,1,-1
 341 446 l 1,2,-1
 341 485 l 1,3,-1
 251 485 l 1,4,-1
 251 431 l 1,0,-1
185 177 m 1,5,-1
 177 188 l 1,6,-1
 172 188 l 1,7,-1
 172 356 l 1,8,-1
 227 408 l 1,9,-1
 49 408 l 1,10,-1
 28 438 l 1,11,-1
 23 438 l 1,12,-1
 23 625 l 1,13,-1
 118 715 l 1,14,-1
 455 715 l 1,15,-1
 550 625 l 1,16,-1
 550 619 l 1,17,-1
 570 591 l 1,18,-1
 570 304 l 1,19,-1
 477 216 l 1,20,-1
 401 216 l 1,21,-1
 401 158 l 1,22,-1
 389 158 l 1,23,-1
 401 141 l 1,24,-1
 401 -53 l 1,25,-1
 198 -53 l 1,26,-1
 177 -23 l 1,27,-1
 172 -23 l 1,28,-1
 172 177 l 1,29,-1
 185 177 l 1,5,-1
497 357 m 1,30,-1
 433 296 l 1,31,-1
 328 296 l 1,32,-1
 328 238 l 1,33,-1
 224 238 l 1,34,-1
 224 335 l 1,35,-1
 289 396 l 1,36,-1
 394 396 l 1,37,-1
 394 565 l 1,38,-1
 179 565 l 1,39,-1
 179 488 l 1,40,-1
 75 488 l 1,41,-1
 75 604 l 1,42,-1
 139 665 l 1,43,-1
 433 665 l 1,44,-1
 497 604 l 1,45,-1
 497 357 l 1,30,-1
328 127 m 1,46,-1
 328 27 l 1,47,-1
 224 27 l 1,48,-1
 224 127 l 1,49,-1
 328 127 l 1,46,-1
542 622 m 1,50,-1
 452 707 l 1,51,-1
 121 707 l 1,52,-1
 31 622 l 1,53,-1
 31 446 l 1,54,-1
 223 446 l 1,55,-1
 223 523 l 1,56,-1
 349 523 l 1,57,-1
 349 438 l 1,58,-1
 270 438 l 1,59,-1
 180 353 l 1,60,-1
 180 196 l 1,61,-1
 373 196 l 1,62,-1
 373 254 l 1,63,-1
 452 254 l 1,64,-1
 542 339 l 1,65,-1
 542 622 l 1,50,-1
180 169 m 1,66,-1
 180 -15 l 1,67,-1
 373 -15 l 1,68,-1
 373 169 l 1,69,-1
 180 169 l 1,66,-1
EndSplineSet
EndChar

StartChar: colon
Encoding: 58 58 68
Width: 300
GlyphClass: 2
Flags: W
LayerCount: 3
Fore
SplineSet
250 177 m 1,0,-1
 250 169 l 1,1,-1
 270 141 l 1,2,-1
 270 -53 l 1,3,-1
 68 -53 l 1,4,-1
 47 -23 l 1,5,-1
 42 -23 l 1,6,-1
 42 177 l 1,7,-1
 250 177 l 1,0,-1
254 705 m 1,8,-1
 254 697 l 1,9,-1
 274 669 l 1,10,-1
 274 475 l 1,11,-1
 72 475 l 1,12,-1
 51 505 l 1,13,-1
 46 505 l 1,14,-1
 46 705 l 1,15,-1
 254 705 l 1,8,-1
202 655 m 1,16,-1
 202 555 l 1,17,-1
 98 555 l 1,18,-1
 98 655 l 1,19,-1
 202 655 l 1,16,-1
54 697 m 1,20,-1
 54 513 l 1,21,-1
 246 513 l 1,22,-1
 246 697 l 1,23,-1
 54 697 l 1,20,-1
198 127 m 1,24,-1
 198 27 l 1,25,-1
 94 27 l 1,26,-1
 94 127 l 1,27,-1
 198 127 l 1,24,-1
50 169 m 1,28,-1
 50 -15 l 1,29,-1
 242 -15 l 1,30,-1
 242 169 l 1,31,-1
 50 169 l 1,28,-1
EndSplineSet
EndChar

StartChar: semicolon
Encoding: 59 59 69
Width: 300
GlyphClass: 2
Flags: W
LayerCount: 3
Fore
SplineSet
254 705 m 1,0,-1
 254 697 l 1,1,-1
 274 669 l 1,2,-1
 274 475 l 1,3,-1
 72 475 l 1,4,-1
 51 505 l 1,5,-1
 46 505 l 1,6,-1
 46 705 l 1,7,-1
 254 705 l 1,0,-1
251 176 m 1,8,-1
 251 168 l 1,9,-1
 271 140 l 1,10,-1
 271 -41 l 1,11,-1
 117 -178 l 1,12,-1
 95 -147 l 1,13,-1
 91 -151 l 1,14,-1
 88 -53 l 1,15,-1
 68 -53 l 1,16,-1
 47 -23 l 1,17,-1
 42 -23 l 1,18,-1
 42 176 l 1,19,-1
 251 176 l 1,8,-1
199 126 m 1,20,-1
 199 9 l 1,21,-1
 139 -48 l 1,22,-1
 139 27 l 1,23,-1
 94 27 l 1,24,-1
 94 126 l 1,25,-1
 199 126 l 1,20,-1
50 168 m 1,26,-1
 50 -15 l 1,27,-1
 95 -15 l 1,28,-1
 99 -134 l 1,29,-1
 243 -6 l 1,30,-1
 243 168 l 1,31,-1
 50 168 l 1,26,-1
202 655 m 1,32,-1
 202 555 l 1,33,-1
 98 555 l 1,34,-1
 98 655 l 1,35,-1
 202 655 l 1,32,-1
54 697 m 1,36,-1
 54 513 l 1,37,-1
 246 513 l 1,38,-1
 246 697 l 1,39,-1
 54 697 l 1,36,-1
EndSplineSet
EndChar

StartChar: B
Encoding: 66 66 70
Width: 624
GlyphClass: 2
Flags: W
LayerCount: 3
Fore
SplineSet
305 177 m 1,0,-1
 372 177 l 1,1,-1
 372 216 l 1,2,-1
 305 216 l 1,3,-1
 305 177 l 1,0,-1
305 445 m 1,4,-1
 372 445 l 1,5,-1
 372 485 l 1,6,-1
 305 485 l 1,7,-1
 305 445 l 1,4,-1
581 280 m 1,8,-1
 601 252 l 1,9,-1
 601 35 l 1,10,-1
 509 -53 l 1,11,-1
 62 -53 l 1,12,-1
 41 -23 l 1,13,-1
 36 -23 l 1,14,-1
 36 177 l 1,15,-1
 76 177 l 1,16,-1
 76 485 l 1,17,-1
 62 485 l 1,18,-1
 41 515 l 1,19,-1
 36 515 l 1,20,-1
 36 714 l 1,21,-1
 487 714 l 1,22,-1
 581 624 l 1,23,-1
 581 618 l 1,24,-1
 601 590 l 1,25,-1
 601 368 l 1,26,-1
 540 322 l 1,27,-1
 581 286 l 1,28,-1
 581 280 l 1,8,-1
529 88 m 1,29,-1
 465 27 l 1,30,-1
 88 27 l 1,31,-1
 88 127 l 1,32,-1
 128 127 l 1,33,-1
 128 565 l 1,34,-1
 88 565 l 1,35,-1
 88 664 l 1,36,-1
 465 664 l 1,37,-1
 529 603 l 1,38,-1
 529 422 l 1,39,-1
 446 347 l 1,40,-1
 529 265 l 1,41,-1
 529 88 l 1,29,-1
424 127 m 1,42,-1
 424 296 l 1,43,-1
 233 296 l 1,44,-1
 233 127 l 1,45,-1
 424 127 l 1,42,-1
424 395 m 1,46,-1
 424 565 l 1,47,-1
 233 565 l 1,48,-1
 233 395 l 1,49,-1
 424 395 l 1,46,-1
573 283 m 1,50,-1
 500 347 l 1,51,-1
 573 403 l 1,52,-1
 573 621 l 1,53,-1
 484 706 l 1,54,-1
 44 706 l 1,55,-1
 44 523 l 1,56,-1
 84 523 l 1,57,-1
 84 169 l 1,58,-1
 44 169 l 1,59,-1
 44 -15 l 1,60,-1
 484 -15 l 1,61,-1
 573 70 l 1,62,-1
 573 283 l 1,50,-1
277 437 m 1,63,-1
 277 523 l 1,64,-1
 380 523 l 1,65,-1
 380 437 l 1,66,-1
 277 437 l 1,63,-1
277 169 m 1,67,-1
 277 254 l 1,68,-1
 380 254 l 1,69,-1
 380 169 l 1,70,-1
 277 169 l 1,67,-1
EndSplineSet
EndChar

StartChar: C
Encoding: 67 67 71
Width: 620
GlyphClass: 2
Flags: W
LayerCount: 3
Fore
SplineSet
577 270 m 1,0,-1
 597 242 l 1,1,-1
 597 35 l 1,2,-1
 504 -53 l 1,3,-1
 154 -53 l 1,4,-1
 62 35 l 1,5,-1
 47 56 l 1,6,-1
 36 67 l 1,7,-1
 36 624 l 1,8,-1
 130 714 l 1,9,-1
 482 714 l 1,10,-1
 577 624 l 1,11,-1
 577 618 l 1,12,-1
 597 590 l 1,13,-1
 597 386 l 1,14,-1
 394 386 l 1,15,-1
 373 416 l 1,16,-1
 368 416 l 1,17,-1
 368 485 l 1,18,-1
 265 485 l 1,19,-1
 265 176 l 1,20,-1
 368 176 l 1,21,-1
 368 278 l 1,22,-1
 577 278 l 1,23,-1
 577 270 l 1,0,-1
525 88 m 1,24,-1
 461 27 l 1,25,-1
 152 27 l 1,26,-1
 88 88 l 1,27,-1
 88 603 l 1,28,-1
 152 664 l 1,29,-1
 461 664 l 1,30,-1
 525 603 l 1,31,-1
 525 466 l 1,32,-1
 420 466 l 1,33,-1
 420 565 l 1,34,-1
 193 565 l 1,35,-1
 193 126 l 1,36,-1
 420 126 l 1,37,-1
 420 228 l 1,38,-1
 525 228 l 1,39,-1
 525 88 l 1,24,-1
569 270 m 1,40,-1
 376 270 l 1,41,-1
 376 168 l 1,42,-1
 237 168 l 1,43,-1
 237 523 l 1,44,-1
 376 523 l 1,45,-1
 376 424 l 1,46,-1
 569 424 l 1,47,-1
 569 621 l 1,48,-1
 479 706 l 1,49,-1
 133 706 l 1,50,-1
 44 621 l 1,51,-1
 44 70 l 1,52,-1
 133 -15 l 1,53,-1
 479 -15 l 1,54,-1
 569 70 l 1,55,-1
 569 270 l 1,40,-1
EndSplineSet
EndChar

StartChar: A
Encoding: 65 65 72
Width: 623
GlyphClass: 2
Flags: W
LayerCount: 3
Fore
SplineSet
99 530 m 1,0,-1
 94 530 l 1,1,-1
 94 714 l 1,2,-1
 532 714 l 1,3,-1
 532 706 l 1,4,-1
 552 678 l 1,5,-1
 552 500 l 1,6,-1
 519 500 l 1,7,-1
 588 168 l 1,8,-1
 620 168 l 1,9,-1
 620 160 l 1,10,-1
 640 132 l 1,11,-1
 640 -53 l 1,12,-1
 357 -53 l 1,13,-1
 336 -23 l 1,14,-1
 331 -23 l 1,15,-1
 331 139 l 1,16,-1
 307 139 l 1,17,-1
 318 124 l 1,18,-1
 318 -53 l 1,19,-1
 35 -53 l 1,20,-1
 14 -23 l 1,21,-1
 9 -23 l 1,22,-1
 9 169 l 1,23,-1
 53 169 l 1,24,-1
 122 500 l 1,25,-1
 120 500 l 1,26,-1
 99 530 l 1,0,-1
242 319 m 1,27,-1
 386 319 l 1,28,-1
 339 544 l 1,29,-1
 289 544 l 1,30,-1
 242 319 l 1,27,-1
568 126 m 1,31,-1
 568 27 l 1,32,-1
 383 27 l 1,33,-1
 383 126 l 1,34,-1
 428 126 l 1,35,-1
 410 219 l 1,36,-1
 218 219 l 1,37,-1
 200 126 l 1,38,-1
 246 126 l 1,39,-1
 246 27 l 1,40,-1
 61 27 l 1,41,-1
 61 135 l 1,42,-1
 95 135 l 1,43,-1
 193 565 l 1,44,-1
 141 565 l 1,45,-1
 141 664 l 1,46,-1
 487 664 l 1,47,-1
 487 565 l 1,48,-1
 436 565 l 1,49,-1
 533 126 l 1,50,-1
 568 126 l 1,31,-1
569 160 m 1,51,-1
 490 538 l 1,52,-1
 524 538 l 1,53,-1
 524 706 l 1,54,-1
 102 706 l 1,55,-1
 102 538 l 1,56,-1
 138 538 l 1,57,58
 130 500 130 500 60 161 c 1,59,-1
 17 161 l 1,60,-1
 17 -15 l 1,61,-1
 290 -15 l 1,62,-1
 290 152 l 1,63,-1
 253 152 l 1,64,65
 253 157 253 157 254 164.5 c 128,-1,66
 255 172 255 172 255 177 c 1,67,-1
 373 177 l 1,68,69
 373 172 373 172 373.5 164 c 128,-1,70
 374 156 374 156 374 151 c 1,71,-1
 339 151 l 1,72,-1
 339 -15 l 1,73,-1
 612 -15 l 1,74,-1
 612 160 l 1,75,-1
 569 160 l 1,51,-1
332 361 m 1,76,-1
 296 361 l 1,77,78
 300 380 300 380 305 399 c 128,-1,79
 310 418 310 418 314 437 c 1,80,-1
 332 361 l 1,76,-1
EndSplineSet
EndChar

StartChar: asterisk
Encoding: 42 42 73
Width: 639
Flags: W
LayerCount: 3
Fore
SplineSet
34 542 m 29,0,-1
 74 542 l 5,1,-1
 74 91 l 5,2,-1
 178 -15 l 5,3,-1
 566 -15 l 5,4,-1
 599 -44 l 5,5,-1
 613 -44 l 5,6,-1
 613 167 l 5,7,-1
 566 167 l 5,8,-1
 567 542 l 5,9,-1
 607 542 l 5,10,-1
 607 707 l 5,11,-1
 343 707 l 5,12,-1
 343 542 l 5,13,-1
 374 542 l 5,14,-1
 374 169 l 5,15,-1
 267 169 l 5,16,-1
 267 542 l 5,17,-1
 297 542 l 5,18,-1
 297 707 l 5,19,-1
 34 707 l 5,20,-1
 34 542 l 29,0,-1
34 542 m 1049,21,-1
34 542 m 1049,22,-1
523 123 m 0,23,-1
 523 584 l 1,24,-1
 563 584 l 1,25,-1
 563 665 l 1,26,-1
 388 665 l 1,27,-1
 388 584 l 1,28,-1
 418 584 l 1,29,-1
 418 127 l 1,30,-1
 223 127 l 1,31,-1
 223 584 l 1,32,-1
 253 584 l 1,33,-1
 253 665 l 1,34,-1
 78 665 l 1,35,-1
 78 584 l 1,36,-1
 118 584 l 1,37,-1
 118 109 l 1,38,-1
 196 27 l 1,39,-1
 523 27 l 0,40,-1
 557 27 l 0,41,-1
 590 27 l 0,42,-1
 590 123 l 0,43,-1
 523 123 l 0,23,-1
566 -15 m 1,44,-1
 599 -44 l 1,45,-1
 613 -44 l 25,46,47
 613 62 613 62 613 167 c 0,48,-1
 566 167 l 1,49,-1
 567 542 l 1,50,-1
 607 542 l 1,51,-1
 607 707 l 1,52,-1
 343 707 l 1,53,-1
 343 542 l 1,54,-1
 374 542 l 1,55,-1
 374 169 l 1,56,-1
 267 169 l 1,57,-1
 267 542 l 1,58,-1
 297 542 l 1,59,-1
 297 707 l 1,60,-1
 34 707 l 1,61,-1
 34 542 l 1,62,-1
 74 542 l 1,63,-1
 74 91 l 1,64,-1
 178 -15 l 1,65,-1
 566 -15 l 1025,66,-1
635 -83 m 0,67,-1
 635 -83 l 0,68,-1
 614 -83 l 0,69,-1
 583 -53 l 1,70,-1
 583 -53 l 1,71,-1
 483 -53 l 1,72,-1
 199 -53 l 1,73,-1
 66 80 l 1,74,-1
 66 504 l 1,75,-1
 52 504 l 1,76,-1
 31 534 l 1,77,-1
 26 534 l 1,78,-1
 26 715 l 1,79,-1
 305 715 l 1,80,-1
 305 707 l 1,81,-1
 325 679 l 1,82,-1
 325 504 l 1,83,-1
 295 504 l 1,84,-1
 295 177 l 1,85,-1
 366 177 l 1,86,-1
 366 504 l 1,87,-1
 361 504 l 1,88,-1
 340 534 l 1,89,-1
 335 534 l 1,90,-1
 335 715 l 1,91,-1
 615 715 l 1,92,-1
 615 707 l 1,93,-1
 635 679 l 1,94,-1
 635 504 l 1,95,-1
 595 504 l 1,96,-1
 596 175 l 0,97,-1
 596 175 l 0,98,-1
 634 175 l 0,99,100
 635 52 635 52 635 -83 c 0,67,-1
EndSplineSet
Layer: 2
SplineSet
34 542 m 29
 74 542 l 29
 74 91 l 29
 178 -15 l 29
 566 -15 l 29
 599 -44 l 29
 613 -44 l 29
 613 167 l 29
 566 167 l 29
 567 542 l 29
 607 542 l 29
 607 707 l 29
 343 707 l 29
 343 542 l 29
 374 542 l 29
 374 169 l 29
 267 169 l 29
 267 542 l 29
 297 542 l 29
 297 707 l 29
 34 707 l 29
 34 542 l 29
EndSplineSet
EndChar

StartChar: plus
Encoding: 43 43 74
Width: 1000
Flags: W
LayerCount: 3
Fore
SplineSet
305 176.000976562 m 1,0,-1
 384 176.000976562 l 1,1,-1
 384 485.000976562 l 1,2,-1
 305 485.000976562 l 1,3,-1
 305 176.000976562 l 1,0,-1
594 578.000976562 m 1,4,-1
 614 550.000976562 l 1,5,-1
 617 178 l 0,6,-1
 652 178 l 1,7,-1
 650 -52 l 1,8,-1
 62 -52.9990234375 l 1,9,-1
 41 -22.9990234375 l 1,10,-1
 36 -22.9990234375 l 1,11,-1
 36 176.000976562 l 1,12,-1
 76 176.000976562 l 1,13,-1
 76 485.000976562 l 1,14,-1
 62 485.000976562 l 1,15,-1
 41 515.000976562 l 1,16,-1
 36 515.000976562 l 1,17,-1
 36 714.000976562 l 1,18,-1
 461 714.000976562 l 1,19,-1
 594 584.000976562 l 1,20,-1
 594 578.000976562 l 1,4,-1
541 125.000976562 m 1,21,-1
 586 125 l 0,22,-1
 586 26.005859375 l 1,23,-1
 88 27.0009765625 l 1,24,-1
 88 124 l 1,25,-1
 126 124 l 1,26,-1
 126 566 l 1,27,-1
 88 566 l 1,28,-1
 88 663 l 1,29,-1
 440 663 l 1,30,-1
 541 562 l 1,31,-1
 541 125.000976562 l 1,21,-1
436 126.000976562 m 1,32,-1
 436 565.000976562 l 1,33,-1
 233 565.000976562 l 1,34,-1
 233 126.000976562 l 1,35,-1
 436 126.000976562 l 1,32,-1
586 581.000976562 m 1,36,-1
 458 706.000976562 l 1,37,-1
 44 706.000976562 l 1,38,-1
 44 523.000976562 l 1,39,-1
 84 523.000976562 l 1,40,-1
 84 168.000976562 l 1,41,-1
 44 168.000976562 l 1,42,-1
 44 -14.9990234375 l 1,43,-1
 461 -14.9990234375 l 1,44,-1
 636 -16 l 1,45,-1
 637 166 l 0,46,-1
 586 166 l 0,47,-1
 586 581.000976562 l 1,36,-1
277 168.000976562 m 1,48,-1
 277 523.000976562 l 1,49,-1
 392 523.000976562 l 1,50,-1
 392 168.000976562 l 1,51,-1
 277 168.000976562 l 1,48,-1
234 565 m 25,52,-1
 233 126 l 1,53,-1
 437 127 l 1,54,-1
 435 564 l 1,55,-1
 234 565 l 25,52,-1
88 124 m 25,56,-1
 126 124 l 1,57,-1
 126 566 l 1,58,-1
 88 566 l 1,59,-1
 88 663 l 1,60,-1
 440 663 l 1,61,-1
 541 562 l 1,62,-1
 541 125.000976562 l 1,63,-1
 586 125 l 1,64,-1
 586 26 l 1,65,-1
 89 27 l 1,66,-1
 88 124 l 25,56,-1
EndSplineSet
Layer: 2
SplineSet
234 565 m 29
 233 126 l 29
 437 127 l 29
 435 564 l 29
 234 565 l 29
88 124 m 29
 126 124 l 29
 126 566 l 29
 88 566 l 29
 88 663 l 29
 440 664 l 29
 541 562 l 29
 542 125 l 29
 587 125 l 29
 586 26 l 29
 89 27 l 29
 88 124 l 29
EndSplineSet
EndChar
